<svg width="681" height="247" viewBox="0 0 681 247" fill="none" xmlns="http://www.w3.org/2000/svg">
<path d="M95.4397 0.651058C95.2445 0.453249 94.9279 0.44912 94.7327 0.641835L91.5509 3.78231C91.3557 3.97502 91.3557 4.29161 91.5509 4.48942C91.7462 4.68723 92.0627 4.69135 92.258 4.49864L95.0862 1.70711L97.9144 4.57243C98.1096 4.77024 98.4262 4.77437 98.6214 4.58165C98.8167 4.38894 98.8167 4.07235 98.6214 3.87455L95.4397 0.651058ZM94.5862 0.993478L94.5862 220.017L95.5861 220.03L95.5861 1.00652L94.5862 0.993478Z" fill="black"/>
<path d="M681 220.518L676 217.631L676 223.405L681 220.518ZM676.5 220.018H94L94 221.018H676.5L676.5 220.018Z" fill="black"/>
<path d="M123.157 238.336C123.157 239.328 123.05 240.187 122.837 240.912C122.624 241.637 122.333 242.237 121.965 242.712C121.597 243.187 121.165 243.541 120.669 243.776C120.178 244.005 119.653 244.12 119.093 244.12C118.533 244.12 118.008 244.005 117.517 243.776C117.026 243.541 116.597 243.187 116.229 242.712C115.861 242.237 115.57 241.637 115.357 240.912C115.149 240.187 115.045 239.328 115.045 238.336C115.045 237.344 115.149 236.485 115.357 235.76C115.57 235.035 115.861 234.435 116.229 233.96C116.597 233.485 117.026 233.133 117.517 232.904C118.008 232.669 118.533 232.552 119.093 232.552C119.653 232.552 120.178 232.669 120.669 232.904C121.165 233.133 121.597 233.485 121.965 233.96C122.333 234.435 122.624 235.035 122.837 235.76C123.05 236.485 123.157 237.344 123.157 238.336ZM122.357 238.336C122.357 237.419 122.269 236.635 122.093 235.984C121.917 235.333 121.68 234.803 121.381 234.392C121.088 233.976 120.741 233.672 120.341 233.48C119.946 233.288 119.53 233.192 119.093 233.192C118.656 233.192 118.24 233.288 117.845 233.48C117.45 233.672 117.104 233.976 116.805 234.392C116.506 234.803 116.269 235.333 116.093 235.984C115.917 236.635 115.829 237.419 115.829 238.336C115.829 239.259 115.917 240.045 116.093 240.696C116.269 241.341 116.506 241.872 116.805 242.288C117.104 242.699 117.45 243 117.845 243.192C118.24 243.379 118.656 243.472 119.093 243.472C119.53 243.472 119.946 243.379 120.341 243.192C120.741 243 121.088 242.699 121.381 242.288C121.68 241.872 121.917 241.341 122.093 240.696C122.269 240.045 122.357 239.259 122.357 238.336ZM131.718 243.408V244H125.878V243.408H128.478V234.224C128.478 234.043 128.486 233.851 128.502 233.648L126.006 235.864C125.932 235.928 125.857 235.952 125.782 235.936C125.708 235.92 125.649 235.888 125.606 235.84L125.374 235.52L128.646 232.632H129.246V243.408H131.718ZM134.399 244.36C134.357 244.467 134.293 244.544 134.207 244.592C134.122 244.645 134.034 244.672 133.943 244.672H133.631L138.607 232.656C138.687 232.459 138.831 232.36 139.039 232.36H139.367L134.399 244.36ZM148.673 238.336C148.673 239.328 148.566 240.187 148.353 240.912C148.139 241.637 147.849 242.237 147.481 242.712C147.113 243.187 146.681 243.541 146.185 243.776C145.694 244.005 145.169 244.12 144.609 244.12C144.049 244.12 143.523 244.005 143.033 243.776C142.542 243.541 142.113 243.187 141.745 242.712C141.377 242.237 141.086 241.637 140.873 240.912C140.665 240.187 140.561 239.328 140.561 238.336C140.561 237.344 140.665 236.485 140.873 235.76C141.086 235.035 141.377 234.435 141.745 233.96C142.113 233.485 142.542 233.133 143.033 232.904C143.523 232.669 144.049 232.552 144.609 232.552C145.169 232.552 145.694 232.669 146.185 232.904C146.681 233.133 147.113 233.485 147.481 233.96C147.849 234.435 148.139 235.035 148.353 235.76C148.566 236.485 148.673 237.344 148.673 238.336ZM147.873 238.336C147.873 237.419 147.785 236.635 147.609 235.984C147.433 235.333 147.195 234.803 146.897 234.392C146.603 233.976 146.257 233.672 145.857 233.48C145.462 233.288 145.046 233.192 144.609 233.192C144.171 233.192 143.755 233.288 143.361 233.48C142.966 233.672 142.619 233.976 142.321 234.392C142.022 234.803 141.785 235.333 141.609 235.984C141.433 236.635 141.345 237.419 141.345 238.336C141.345 239.259 141.433 240.045 141.609 240.696C141.785 241.341 142.022 241.872 142.321 242.288C142.619 242.699 142.966 243 143.361 243.192C143.755 243.379 144.171 243.472 144.609 243.472C145.046 243.472 145.462 243.379 145.857 243.192C146.257 243 146.603 242.699 146.897 242.288C147.195 241.872 147.433 241.341 147.609 240.696C147.785 240.045 147.873 239.259 147.873 238.336ZM157.234 243.408V244H151.394V243.408H153.994V234.224C153.994 234.043 154.002 233.851 154.018 233.648L151.522 235.864C151.447 235.928 151.372 235.952 151.298 235.936C151.223 235.92 151.164 235.888 151.122 235.84L150.89 235.52L154.162 232.632H154.762V243.408H157.234Z" fill="black"/>
<path d="M618.157 238.336C618.157 239.328 618.05 240.187 617.837 240.912C617.624 241.637 617.333 242.237 616.965 242.712C616.597 243.187 616.165 243.541 615.669 243.776C615.178 244.005 614.653 244.12 614.093 244.12C613.533 244.12 613.008 244.005 612.517 243.776C612.026 243.541 611.597 243.187 611.229 242.712C610.861 242.237 610.57 241.637 610.357 240.912C610.149 240.187 610.045 239.328 610.045 238.336C610.045 237.344 610.149 236.485 610.357 235.76C610.57 235.035 610.861 234.435 611.229 233.96C611.597 233.485 612.026 233.133 612.517 232.904C613.008 232.669 613.533 232.552 614.093 232.552C614.653 232.552 615.178 232.669 615.669 232.904C616.165 233.133 616.597 233.485 616.965 233.96C617.333 234.435 617.624 235.035 617.837 235.76C618.05 236.485 618.157 237.344 618.157 238.336ZM617.357 238.336C617.357 237.419 617.269 236.635 617.093 235.984C616.917 235.333 616.68 234.803 616.381 234.392C616.088 233.976 615.741 233.672 615.341 233.48C614.946 233.288 614.53 233.192 614.093 233.192C613.656 233.192 613.24 233.288 612.845 233.48C612.45 233.672 612.104 233.976 611.805 234.392C611.506 234.803 611.269 235.333 611.093 235.984C610.917 236.635 610.829 237.419 610.829 238.336C610.829 239.259 610.917 240.045 611.093 240.696C611.269 241.341 611.506 241.872 611.805 242.288C612.104 242.699 612.45 243 612.845 243.192C613.24 243.379 613.656 243.472 614.093 243.472C614.53 243.472 614.946 243.379 615.341 243.192C615.741 243 616.088 242.699 616.381 242.288C616.68 241.872 616.917 241.341 617.093 240.696C617.269 240.045 617.357 239.259 617.357 238.336ZM626.718 243.408V244H620.878V243.408H623.478V234.224C623.478 234.043 623.486 233.851 623.502 233.648L621.006 235.864C620.932 235.928 620.857 235.952 620.782 235.936C620.708 235.92 620.649 235.888 620.606 235.84L620.374 235.52L623.646 232.632H624.246V243.408H626.718ZM629.399 244.36C629.357 244.467 629.293 244.544 629.207 244.592C629.122 244.645 629.034 244.672 628.943 244.672H628.631L633.607 232.656C633.687 232.459 633.831 232.36 634.039 232.36H634.367L629.399 244.36ZM643.673 238.336C643.673 239.328 643.566 240.187 643.353 240.912C643.139 241.637 642.849 242.237 642.481 242.712C642.113 243.187 641.681 243.541 641.185 243.776C640.694 244.005 640.169 244.12 639.609 244.12C639.049 244.12 638.523 244.005 638.033 243.776C637.542 243.541 637.113 243.187 636.745 242.712C636.377 242.237 636.086 241.637 635.873 240.912C635.665 240.187 635.561 239.328 635.561 238.336C635.561 237.344 635.665 236.485 635.873 235.76C636.086 235.035 636.377 234.435 636.745 233.96C637.113 233.485 637.542 233.133 638.033 232.904C638.523 232.669 639.049 232.552 639.609 232.552C640.169 232.552 640.694 232.669 641.185 232.904C641.681 233.133 642.113 233.485 642.481 233.96C642.849 234.435 643.139 235.035 643.353 235.76C643.566 236.485 643.673 237.344 643.673 238.336ZM642.873 238.336C642.873 237.419 642.785 236.635 642.609 235.984C642.433 235.333 642.195 234.803 641.897 234.392C641.603 233.976 641.257 233.672 640.857 233.48C640.462 233.288 640.046 233.192 639.609 233.192C639.171 233.192 638.755 233.288 638.361 233.48C637.966 233.672 637.619 233.976 637.321 234.392C637.022 234.803 636.785 235.333 636.609 235.984C636.433 236.635 636.345 237.419 636.345 238.336C636.345 239.259 636.433 240.045 636.609 240.696C636.785 241.341 637.022 241.872 637.321 242.288C637.619 242.699 637.966 243 638.361 243.192C638.755 243.379 639.171 243.472 639.609 243.472C640.046 243.472 640.462 243.379 640.857 243.192C641.257 243 641.603 242.699 641.897 242.288C642.195 241.872 642.433 241.341 642.609 240.696C642.785 240.045 642.873 239.259 642.873 238.336ZM652.21 243.28C652.295 243.28 652.362 243.307 652.41 243.36C652.458 243.408 652.482 243.472 652.482 243.552V244H645.178V243.728C645.178 243.669 645.191 243.611 645.218 243.552C645.25 243.488 645.29 243.435 645.338 243.392L649.202 239.48C649.522 239.155 649.818 238.84 650.09 238.536C650.362 238.232 650.596 237.925 650.794 237.616C650.996 237.307 651.154 236.989 651.266 236.664C651.378 236.339 651.434 235.992 651.434 235.624C651.434 235.208 651.364 234.848 651.226 234.544C651.087 234.235 650.903 233.981 650.674 233.784C650.444 233.587 650.178 233.44 649.874 233.344C649.57 233.248 649.255 233.2 648.93 233.2C648.572 233.2 648.242 233.256 647.938 233.368C647.639 233.475 647.372 233.627 647.138 233.824C646.908 234.016 646.716 234.248 646.562 234.52C646.412 234.787 646.308 235.08 646.25 235.4C646.212 235.517 646.162 235.595 646.098 235.632C646.039 235.669 645.956 235.683 645.85 235.672L645.458 235.608C645.527 235.123 645.66 234.691 645.858 234.312C646.055 233.933 646.306 233.613 646.61 233.352C646.914 233.091 647.266 232.893 647.666 232.76C648.066 232.621 648.498 232.552 648.962 232.552C649.394 232.552 649.804 232.616 650.194 232.744C650.588 232.867 650.935 233.056 651.234 233.312C651.538 233.563 651.778 233.88 651.954 234.264C652.13 234.643 652.218 235.088 652.218 235.6C652.218 236.027 652.151 236.424 652.018 236.792C651.89 237.155 651.714 237.504 651.49 237.84C651.266 238.176 651.004 238.504 650.706 238.824C650.412 239.139 650.103 239.461 649.778 239.792L646.234 243.408C646.404 243.365 646.58 243.333 646.762 243.312C646.948 243.291 647.135 243.28 647.322 243.28H652.21Z" fill="black"/>
<rect x="126" y="45" width="22" height="175" fill="#FEBA12"/>
<rect x="170" y="140" width="22" height="80" fill="#FEBA12"/>
<rect x="214" y="85" width="22" height="135" fill="#FEBA12"/>
<rect x="258" y="45" width="22" height="175" fill="#FEBA12"/>
<rect x="302" y="186" width="22" height="34" fill="#FEBA12"/>
<rect x="346" y="185" width="22" height="35" fill="#FEBA12"/>
<rect x="390" y="85" width="22" height="135" fill="#FEBA12"/>
<rect x="434" y="15" width="22" height="205" fill="#FEBA12"/>
<rect x="478" y="127" width="22" height="93" fill="#FEBA12"/>
<rect x="522" y="70" width="22" height="150" fill="#FEBA12"/>
<rect x="566" y="32" width="22" height="188" fill="#FEBA12"/>
<rect x="610" y="62" width="22" height="158" fill="#FEBA12"/>
<path d="M10.2463 202.096C10.2996 202.096 10.3449 202.115 10.3823 202.152L10.7023 202.496C10.4676 202.747 10.2116 202.973 9.93425 203.176C9.66225 203.373 9.36092 203.544 9.03025 203.688C8.70492 203.827 8.34492 203.933 7.95025 204.008C7.56092 204.088 7.13158 204.128 6.66225 204.128C5.87825 204.128 5.15825 203.992 4.50225 203.72C3.85158 203.443 3.29158 203.053 2.82225 202.552C2.35292 202.045 1.98758 201.435 1.72625 200.72C1.47025 200.005 1.34225 199.211 1.34225 198.336C1.34225 197.477 1.47558 196.693 1.74225 195.984C2.00892 195.275 2.38225 194.667 2.86225 194.16C3.34225 193.648 3.91825 193.253 4.59025 192.976C5.26225 192.693 6.00358 192.552 6.81425 192.552C7.58758 192.552 8.27292 192.672 8.87025 192.912C9.46758 193.152 10.0116 193.491 10.5023 193.928L10.2543 194.288C10.2116 194.352 10.1449 194.384 10.0543 194.384C9.99025 194.384 9.88625 194.325 9.74225 194.208C9.59825 194.091 9.39825 193.963 9.14225 193.824C8.88625 193.68 8.56625 193.549 8.18225 193.432C7.80358 193.315 7.34758 193.256 6.81425 193.256C6.13158 193.256 5.50492 193.373 4.93425 193.608C4.36892 193.843 3.88092 194.179 3.47025 194.616C3.06492 195.053 2.74758 195.587 2.51825 196.216C2.28892 196.845 2.17425 197.552 2.17425 198.336C2.17425 199.136 2.28892 199.851 2.51825 200.48C2.75292 201.109 3.07292 201.643 3.47825 202.08C3.88358 202.512 4.36092 202.845 4.91025 203.08C5.46492 203.309 6.06225 203.424 6.70225 203.424C7.10758 203.424 7.46758 203.397 7.78225 203.344C8.10225 203.291 8.39558 203.211 8.66225 203.104C8.92892 202.997 9.17692 202.867 9.40625 202.712C9.63558 202.557 9.86225 202.376 10.0863 202.168C10.1129 202.147 10.1396 202.131 10.1663 202.12C10.1929 202.104 10.2196 202.096 10.2463 202.096ZM15.8188 198.784C16.3148 198.784 16.7601 198.715 17.1548 198.576C17.5494 198.437 17.8828 198.245 18.1548 198C18.4321 197.755 18.6428 197.467 18.7868 197.136C18.9361 196.8 19.0108 196.435 19.0108 196.04C19.0108 195.171 18.7441 194.501 18.2108 194.032C17.6774 193.563 16.8801 193.328 15.8188 193.328H13.7148V198.784H15.8188ZM15.8188 192.68C17.1468 192.68 18.1468 192.971 18.8188 193.552C19.4961 194.133 19.8348 194.963 19.8348 196.04C19.8348 196.536 19.7414 196.992 19.5548 197.408C19.3681 197.824 19.1014 198.184 18.7548 198.488C18.4081 198.787 17.9868 199.021 17.4908 199.192C16.9948 199.357 16.4374 199.44 15.8188 199.44H13.7148V204H12.8908V192.68H15.8188ZM26.2848 203.416C26.8288 203.416 27.3141 203.323 27.7408 203.136C28.1728 202.944 28.5381 202.68 28.8368 202.344C29.1354 202.008 29.3621 201.613 29.5168 201.16C29.6768 200.701 29.7568 200.208 29.7568 199.68V192.68H30.5728V199.68C30.5728 200.304 30.4741 200.888 30.2768 201.432C30.0794 201.971 29.7941 202.443 29.4208 202.848C29.0528 203.248 28.6021 203.563 28.0688 203.792C27.5408 204.021 26.9461 204.136 26.2848 204.136C25.6234 204.136 25.0261 204.021 24.4928 203.792C23.9648 203.563 23.5141 203.248 23.1408 202.848C22.7728 202.443 22.4901 201.971 22.2928 201.432C22.0954 200.888 21.9968 200.304 21.9968 199.68V192.68H22.8207V199.672C22.8207 200.2 22.8981 200.693 23.0528 201.152C23.2128 201.605 23.4394 202 23.7328 202.336C24.0314 202.672 24.3941 202.936 24.8208 203.128C25.2528 203.32 25.7408 203.416 26.2848 203.416ZM42.2535 203.416C42.7975 203.416 43.2828 203.323 43.7095 203.136C44.1415 202.944 44.5068 202.68 44.8055 202.344C45.1042 202.008 45.3308 201.613 45.4855 201.16C45.6455 200.701 45.7255 200.208 45.7255 199.68V192.68H46.5415V199.68C46.5415 200.304 46.4428 200.888 46.2455 201.432C46.0482 201.971 45.7628 202.443 45.3895 202.848C45.0215 203.248 44.5708 203.563 44.0375 203.792C43.5095 204.021 42.9148 204.136 42.2535 204.136C41.5922 204.136 40.9948 204.021 40.4615 203.792C39.9335 203.563 39.4828 203.248 39.1095 202.848C38.7415 202.443 38.4588 201.971 38.2615 201.432C38.0642 200.888 37.9655 200.304 37.9655 199.68V192.68H38.7895V199.672C38.7895 200.2 38.8668 200.693 39.0215 201.152C39.1815 201.605 39.4082 202 39.7015 202.336C40.0002 202.672 40.3628 202.936 40.7895 203.128C41.2215 203.32 41.7095 203.416 42.2535 203.416ZM53.3286 197.024C53.286 197.099 53.2246 197.136 53.1446 197.136C53.086 197.136 53.0113 197.104 52.9206 197.04C52.83 196.971 52.7073 196.896 52.5526 196.816C52.4033 196.731 52.2166 196.656 51.9926 196.592C51.7686 196.523 51.4966 196.488 51.1766 196.488C50.8886 196.488 50.6246 196.531 50.3846 196.616C50.15 196.696 49.9473 196.805 49.7766 196.944C49.6113 197.083 49.4833 197.245 49.3926 197.432C49.302 197.613 49.2566 197.805 49.2566 198.008C49.2566 198.259 49.3206 198.467 49.4486 198.632C49.5766 198.797 49.742 198.939 49.9446 199.056C50.1526 199.173 50.39 199.275 50.6566 199.36C50.9233 199.445 51.1926 199.531 51.4646 199.616C51.742 199.701 52.014 199.797 52.2806 199.904C52.5473 200.005 52.782 200.133 52.9846 200.288C53.1926 200.443 53.3606 200.632 53.4886 200.856C53.6166 201.08 53.6806 201.352 53.6806 201.672C53.6806 202.019 53.6193 202.341 53.4966 202.64C53.374 202.939 53.1926 203.197 52.9526 203.416C52.718 203.635 52.4273 203.808 52.0806 203.936C51.734 204.064 51.3366 204.128 50.8886 204.128C50.3286 204.128 49.846 204.04 49.4406 203.864C49.0353 203.683 48.6726 203.448 48.3526 203.16L48.5286 202.888C48.5553 202.845 48.5846 202.813 48.6166 202.792C48.654 202.771 48.702 202.76 48.7606 202.76C48.83 202.76 48.9126 202.803 49.0086 202.888C49.11 202.973 49.2433 203.067 49.4086 203.168C49.574 203.264 49.7766 203.355 50.0166 203.44C50.262 203.525 50.5633 203.568 50.9206 203.568C51.2566 203.568 51.5526 203.523 51.8086 203.432C52.0646 203.336 52.278 203.208 52.4486 203.048C52.6193 202.888 52.7473 202.701 52.8326 202.488C52.9233 202.269 52.9686 202.04 52.9686 201.8C52.9686 201.533 52.9046 201.312 52.7766 201.136C52.6486 200.96 52.4806 200.811 52.2726 200.688C52.0646 200.565 51.8273 200.461 51.5606 200.376C51.2993 200.291 51.03 200.205 50.7526 200.12C50.4753 200.035 50.2033 199.941 49.9366 199.84C49.6753 199.739 49.4406 199.611 49.2326 199.456C49.0246 199.301 48.8566 199.115 48.7286 198.896C48.6006 198.672 48.5366 198.395 48.5366 198.064C48.5366 197.781 48.598 197.509 48.7206 197.248C48.8433 196.987 49.0166 196.757 49.2406 196.56C49.47 196.363 49.7473 196.205 50.0726 196.088C50.398 195.971 50.7633 195.912 51.1686 195.912C51.654 195.912 52.0833 195.981 52.4566 196.12C52.8353 196.259 53.1793 196.472 53.4886 196.76L53.3286 197.024ZM60.2055 200.152C59.4482 200.179 58.7948 200.24 58.2455 200.336C57.7015 200.427 57.2508 200.552 56.8935 200.712C56.5415 200.872 56.2802 201.064 56.1095 201.288C55.9388 201.507 55.8535 201.757 55.8535 202.04C55.8535 202.307 55.8962 202.539 55.9815 202.736C56.0722 202.928 56.1895 203.088 56.3335 203.216C56.4828 203.339 56.6535 203.429 56.8455 203.488C57.0375 203.547 57.2375 203.576 57.4455 203.576C57.7548 203.576 58.0375 203.544 58.2935 203.48C58.5548 203.411 58.7948 203.317 59.0135 203.2C59.2375 203.077 59.4455 202.933 59.6375 202.768C59.8295 202.603 60.0188 202.424 60.2055 202.232V200.152ZM55.5255 197.168C55.9415 196.752 56.3788 196.437 56.8375 196.224C57.2962 196.011 57.8162 195.904 58.3975 195.904C58.8242 195.904 59.1975 195.973 59.5175 196.112C59.8375 196.245 60.1015 196.44 60.3095 196.696C60.5228 196.947 60.6828 197.253 60.7895 197.616C60.8962 197.973 60.9495 198.373 60.9495 198.816V204H60.6455C60.4855 204 60.3868 203.925 60.3495 203.776L60.2375 202.752C60.0188 202.965 59.8002 203.157 59.5815 203.328C59.3682 203.499 59.1442 203.643 58.9095 203.76C58.6748 203.877 58.4215 203.968 58.1495 204.032C57.8775 204.096 57.5788 204.128 57.2535 204.128C56.9815 204.128 56.7175 204.088 56.4615 204.008C56.2055 203.928 55.9762 203.805 55.7735 203.64C55.5762 203.475 55.4162 203.264 55.2935 203.008C55.1762 202.747 55.1175 202.435 55.1175 202.072C55.1175 201.736 55.2135 201.424 55.4055 201.136C55.5975 200.848 55.8988 200.597 56.3095 200.384C56.7202 200.171 57.2455 200 57.8855 199.872C58.5308 199.744 59.3042 199.669 60.2055 199.648V198.816C60.2055 198.08 60.0455 197.515 59.7255 197.12C59.4108 196.72 58.9415 196.52 58.3175 196.52C57.9335 196.52 57.6055 196.573 57.3335 196.68C57.0668 196.787 56.8402 196.904 56.6535 197.032C56.4668 197.16 56.3148 197.277 56.1975 197.384C56.0802 197.491 55.9815 197.544 55.9015 197.544C55.8428 197.544 55.7948 197.531 55.7575 197.504C55.7202 197.477 55.6882 197.443 55.6615 197.4L55.5255 197.168ZM66.0995 200.48C66.4408 200.48 66.7448 200.432 67.0115 200.336C67.2782 200.235 67.5022 200.096 67.6835 199.92C67.8648 199.744 68.0035 199.533 68.0995 199.288C68.1955 199.043 68.2435 198.771 68.2435 198.472C68.2435 198.173 68.1928 197.901 68.0915 197.656C67.9955 197.405 67.8542 197.192 67.6675 197.016C67.4862 196.84 67.2622 196.704 66.9955 196.608C66.7342 196.512 66.4355 196.464 66.0995 196.464C65.7635 196.464 65.4622 196.512 65.1955 196.608C64.9342 196.704 64.7102 196.84 64.5235 197.016C64.3422 197.192 64.2035 197.405 64.1075 197.656C64.0115 197.901 63.9635 198.173 63.9635 198.472C63.9635 198.771 64.0115 199.043 64.1075 199.288C64.2035 199.533 64.3422 199.744 64.5235 199.92C64.7102 200.096 64.9342 200.235 65.1955 200.336C65.4622 200.432 65.7635 200.48 66.0995 200.48ZM69.0755 204.536C69.0755 204.285 69.0088 204.085 68.8755 203.936C68.7475 203.781 68.5742 203.661 68.3555 203.576C68.1368 203.491 67.8835 203.432 67.5955 203.4C67.3128 203.363 67.0142 203.336 66.6995 203.32C66.3902 203.304 66.0782 203.288 65.7635 203.272C65.4488 203.256 65.1528 203.224 64.8755 203.176C64.6728 203.256 64.4862 203.349 64.3155 203.456C64.1448 203.557 63.9982 203.675 63.8755 203.808C63.7528 203.941 63.6568 204.085 63.5875 204.24C63.5182 204.4 63.4835 204.571 63.4835 204.752C63.4835 204.987 63.5422 205.203 63.6595 205.4C63.7822 205.603 63.9582 205.776 64.1875 205.92C64.4222 206.069 64.7075 206.187 65.0435 206.272C65.3795 206.357 65.7662 206.4 66.2035 206.4C66.6088 206.4 66.9848 206.355 67.3315 206.264C67.6835 206.173 67.9875 206.045 68.2435 205.88C68.5048 205.715 68.7075 205.517 68.8515 205.288C69.0008 205.059 69.0755 204.808 69.0755 204.536ZM69.9075 196.392V196.656C69.9075 196.773 69.8328 196.845 69.6835 196.872L68.4675 196.96C68.6168 197.163 68.7315 197.389 68.8115 197.64C68.8915 197.891 68.9315 198.163 68.9315 198.456C68.9315 198.84 68.8622 199.189 68.7235 199.504C68.5902 199.813 68.3982 200.08 68.1475 200.304C67.9022 200.523 67.6035 200.693 67.2515 200.816C66.9048 200.939 66.5208 201 66.0995 201C65.6462 201 65.2328 200.931 64.8595 200.792C64.6355 200.92 64.4568 201.072 64.3235 201.248C64.1955 201.419 64.1315 201.589 64.1315 201.76C64.1315 201.989 64.2115 202.165 64.3715 202.288C64.5368 202.411 64.7502 202.501 65.0115 202.56C65.2782 202.613 65.5795 202.648 65.9155 202.664C66.2568 202.68 66.6035 202.699 66.9555 202.72C67.3075 202.736 67.6515 202.768 67.9875 202.816C68.3288 202.864 68.6302 202.949 68.8915 203.072C69.1582 203.189 69.3715 203.357 69.5315 203.576C69.6968 203.789 69.7795 204.075 69.7795 204.432C69.7795 204.763 69.6968 205.08 69.5315 205.384C69.3662 205.688 69.1262 205.957 68.8115 206.192C68.5022 206.427 68.1262 206.613 67.6835 206.752C67.2408 206.896 66.7448 206.968 66.1955 206.968C65.6355 206.968 65.1448 206.909 64.7235 206.792C64.3022 206.68 63.9475 206.525 63.6595 206.328C63.3768 206.136 63.1635 205.912 63.0195 205.656C62.8755 205.4 62.8035 205.128 62.8035 204.84C62.8035 204.419 62.9422 204.059 63.2195 203.76C63.4968 203.456 63.8755 203.219 64.3555 203.048C64.0888 202.957 63.8728 202.827 63.7075 202.656C63.5475 202.48 63.4675 202.243 63.4675 201.944C63.4675 201.832 63.4888 201.715 63.5315 201.592C63.5742 201.469 63.6382 201.349 63.7235 201.232C63.8088 201.109 63.9128 200.995 64.0355 200.888C64.1582 200.781 64.2968 200.685 64.4515 200.6C64.0728 200.381 63.7768 200.091 63.5635 199.728C63.3555 199.365 63.2515 198.941 63.2515 198.456C63.2515 198.072 63.3182 197.725 63.4515 197.416C63.5902 197.101 63.7848 196.832 64.0355 196.608C64.2862 196.384 64.5848 196.211 64.9315 196.088C65.2835 195.965 65.6728 195.904 66.0995 195.904C66.4515 195.904 66.7742 195.947 67.0675 196.032C67.3662 196.117 67.6328 196.237 67.8675 196.392H69.9075ZM77.146 199.216C77.146 198.789 77.0847 198.408 76.962 198.072C76.8447 197.731 76.6767 197.443 76.458 197.208C76.2393 196.973 75.978 196.795 75.674 196.672C75.3753 196.544 75.0447 196.48 74.682 196.48C74.2713 196.48 73.9033 196.544 73.578 196.672C73.2527 196.8 72.97 196.984 72.73 197.224C72.4953 197.464 72.306 197.752 72.162 198.088C72.018 198.424 71.922 198.8 71.874 199.216H77.146ZM71.834 199.704V199.856C71.834 200.453 71.9033 200.979 72.042 201.432C72.1807 201.885 72.378 202.267 72.634 202.576C72.89 202.88 73.1993 203.109 73.562 203.264C73.9247 203.419 74.33 203.496 74.778 203.496C75.178 203.496 75.5247 203.453 75.818 203.368C76.1113 203.277 76.3567 203.179 76.554 203.072C76.7567 202.96 76.9167 202.861 77.034 202.776C77.1513 202.685 77.2367 202.64 77.29 202.64C77.3593 202.64 77.4127 202.667 77.45 202.72L77.658 202.976C77.53 203.136 77.3593 203.285 77.146 203.424C76.938 203.563 76.7033 203.683 76.442 203.784C76.186 203.88 75.9087 203.957 75.61 204.016C75.3167 204.075 75.0207 204.104 74.722 204.104C74.178 204.104 73.682 204.011 73.234 203.824C72.786 203.632 72.402 203.355 72.082 202.992C71.762 202.629 71.514 202.187 71.338 201.664C71.1673 201.136 71.082 200.533 71.082 199.856C71.082 199.285 71.162 198.76 71.322 198.28C71.4873 197.795 71.722 197.379 72.026 197.032C72.3353 196.68 72.7113 196.405 73.154 196.208C73.602 196.011 74.1087 195.912 74.674 195.912C75.122 195.912 75.538 195.989 75.922 196.144C76.306 196.299 76.6393 196.525 76.922 196.824C77.2047 197.117 77.426 197.48 77.586 197.912C77.7513 198.344 77.834 198.84 77.834 199.4C77.834 199.517 77.818 199.597 77.786 199.64C77.754 199.683 77.7007 199.704 77.626 199.704H71.834Z" fill="black"/>
</svg>
