<svg width="678" height="247" viewBox="0 0 678 247" fill="none" xmlns="http://www.w3.org/2000/svg">
<path d="M92.4397 0.651058C92.2445 0.453249 91.9279 0.44912 91.7327 0.641835L88.5509 3.78231C88.3557 3.97502 88.3557 4.29161 88.5509 4.48942C88.7462 4.68723 89.0627 4.69135 89.258 4.49864L92.0862 1.70711L94.9144 4.57243C95.1096 4.77024 95.4262 4.77437 95.6214 4.58165C95.8167 4.38894 95.8167 4.07235 95.6214 3.87455L92.4397 0.651058ZM91.5862 0.993478L91.5862 220.017L92.5861 220.03L92.5861 1.00652L91.5862 0.993478Z" fill="black"/>
<path d="M678 220.518L673 217.631L673 223.405L678 220.518ZM673.5 220.018H91L91 221.018H673.5L673.5 220.018Z" fill="black"/>
<path d="M120.157 238.336C120.157 239.328 120.05 240.187 119.837 240.912C119.624 241.637 119.333 242.237 118.965 242.712C118.597 243.187 118.165 243.541 117.669 243.776C117.178 244.005 116.653 244.12 116.093 244.12C115.533 244.12 115.008 244.005 114.517 243.776C114.026 243.541 113.597 243.187 113.229 242.712C112.861 242.237 112.57 241.637 112.357 240.912C112.149 240.187 112.045 239.328 112.045 238.336C112.045 237.344 112.149 236.485 112.357 235.76C112.57 235.035 112.861 234.435 113.229 233.96C113.597 233.485 114.026 233.133 114.517 232.904C115.008 232.669 115.533 232.552 116.093 232.552C116.653 232.552 117.178 232.669 117.669 232.904C118.165 233.133 118.597 233.485 118.965 233.96C119.333 234.435 119.624 235.035 119.837 235.76C120.05 236.485 120.157 237.344 120.157 238.336ZM119.357 238.336C119.357 237.419 119.269 236.635 119.093 235.984C118.917 235.333 118.68 234.803 118.381 234.392C118.088 233.976 117.741 233.672 117.341 233.48C116.946 233.288 116.53 233.192 116.093 233.192C115.656 233.192 115.24 233.288 114.845 233.48C114.45 233.672 114.104 233.976 113.805 234.392C113.506 234.803 113.269 235.333 113.093 235.984C112.917 236.635 112.829 237.419 112.829 238.336C112.829 239.259 112.917 240.045 113.093 240.696C113.269 241.341 113.506 241.872 113.805 242.288C114.104 242.699 114.45 243 114.845 243.192C115.24 243.379 115.656 243.472 116.093 243.472C116.53 243.472 116.946 243.379 117.341 243.192C117.741 243 118.088 242.699 118.381 242.288C118.68 241.872 118.917 241.341 119.093 240.696C119.269 240.045 119.357 239.259 119.357 238.336ZM128.718 243.408V244H122.878V243.408H125.478V234.224C125.478 234.043 125.486 233.851 125.502 233.648L123.006 235.864C122.932 235.928 122.857 235.952 122.782 235.936C122.708 235.92 122.649 235.888 122.606 235.84L122.374 235.52L125.646 232.632H126.246V243.408H128.718ZM131.399 244.36C131.357 244.467 131.293 244.544 131.207 244.592C131.122 244.645 131.034 244.672 130.943 244.672H130.631L135.607 232.656C135.687 232.459 135.831 232.36 136.039 232.36H136.367L131.399 244.36ZM145.673 238.336C145.673 239.328 145.566 240.187 145.353 240.912C145.139 241.637 144.849 242.237 144.481 242.712C144.113 243.187 143.681 243.541 143.185 243.776C142.694 244.005 142.169 244.12 141.609 244.12C141.049 244.12 140.523 244.005 140.033 243.776C139.542 243.541 139.113 243.187 138.745 242.712C138.377 242.237 138.086 241.637 137.873 240.912C137.665 240.187 137.561 239.328 137.561 238.336C137.561 237.344 137.665 236.485 137.873 235.76C138.086 235.035 138.377 234.435 138.745 233.96C139.113 233.485 139.542 233.133 140.033 232.904C140.523 232.669 141.049 232.552 141.609 232.552C142.169 232.552 142.694 232.669 143.185 232.904C143.681 233.133 144.113 233.485 144.481 233.96C144.849 234.435 145.139 235.035 145.353 235.76C145.566 236.485 145.673 237.344 145.673 238.336ZM144.873 238.336C144.873 237.419 144.785 236.635 144.609 235.984C144.433 235.333 144.195 234.803 143.897 234.392C143.603 233.976 143.257 233.672 142.857 233.48C142.462 233.288 142.046 233.192 141.609 233.192C141.171 233.192 140.755 233.288 140.361 233.48C139.966 233.672 139.619 233.976 139.321 234.392C139.022 234.803 138.785 235.333 138.609 235.984C138.433 236.635 138.345 237.419 138.345 238.336C138.345 239.259 138.433 240.045 138.609 240.696C138.785 241.341 139.022 241.872 139.321 242.288C139.619 242.699 139.966 243 140.361 243.192C140.755 243.379 141.171 243.472 141.609 243.472C142.046 243.472 142.462 243.379 142.857 243.192C143.257 243 143.603 242.699 143.897 242.288C144.195 241.872 144.433 241.341 144.609 240.696C144.785 240.045 144.873 239.259 144.873 238.336ZM154.234 243.408V244H148.394V243.408H150.994V234.224C150.994 234.043 151.002 233.851 151.018 233.648L148.522 235.864C148.447 235.928 148.372 235.952 148.298 235.936C148.223 235.92 148.164 235.888 148.122 235.84L147.89 235.52L151.162 232.632H151.762V243.408H154.234Z" fill="black"/>
<path d="M615.157 238.336C615.157 239.328 615.05 240.187 614.837 240.912C614.624 241.637 614.333 242.237 613.965 242.712C613.597 243.187 613.165 243.541 612.669 243.776C612.178 244.005 611.653 244.12 611.093 244.12C610.533 244.12 610.008 244.005 609.517 243.776C609.026 243.541 608.597 243.187 608.229 242.712C607.861 242.237 607.57 241.637 607.357 240.912C607.149 240.187 607.045 239.328 607.045 238.336C607.045 237.344 607.149 236.485 607.357 235.76C607.57 235.035 607.861 234.435 608.229 233.96C608.597 233.485 609.026 233.133 609.517 232.904C610.008 232.669 610.533 232.552 611.093 232.552C611.653 232.552 612.178 232.669 612.669 232.904C613.165 233.133 613.597 233.485 613.965 233.96C614.333 234.435 614.624 235.035 614.837 235.76C615.05 236.485 615.157 237.344 615.157 238.336ZM614.357 238.336C614.357 237.419 614.269 236.635 614.093 235.984C613.917 235.333 613.68 234.803 613.381 234.392C613.088 233.976 612.741 233.672 612.341 233.48C611.946 233.288 611.53 233.192 611.093 233.192C610.656 233.192 610.24 233.288 609.845 233.48C609.45 233.672 609.104 233.976 608.805 234.392C608.506 234.803 608.269 235.333 608.093 235.984C607.917 236.635 607.829 237.419 607.829 238.336C607.829 239.259 607.917 240.045 608.093 240.696C608.269 241.341 608.506 241.872 608.805 242.288C609.104 242.699 609.45 243 609.845 243.192C610.24 243.379 610.656 243.472 611.093 243.472C611.53 243.472 611.946 243.379 612.341 243.192C612.741 243 613.088 242.699 613.381 242.288C613.68 241.872 613.917 241.341 614.093 240.696C614.269 240.045 614.357 239.259 614.357 238.336ZM623.718 243.408V244H617.878V243.408H620.478V234.224C620.478 234.043 620.486 233.851 620.502 233.648L618.006 235.864C617.932 235.928 617.857 235.952 617.782 235.936C617.708 235.92 617.649 235.888 617.606 235.84L617.374 235.52L620.646 232.632H621.246V243.408H623.718ZM626.399 244.36C626.357 244.467 626.293 244.544 626.207 244.592C626.122 244.645 626.034 244.672 625.943 244.672H625.631L630.607 232.656C630.687 232.459 630.831 232.36 631.039 232.36H631.367L626.399 244.36ZM640.673 238.336C640.673 239.328 640.566 240.187 640.353 240.912C640.139 241.637 639.849 242.237 639.481 242.712C639.113 243.187 638.681 243.541 638.185 243.776C637.694 244.005 637.169 244.12 636.609 244.12C636.049 244.12 635.523 244.005 635.033 243.776C634.542 243.541 634.113 243.187 633.745 242.712C633.377 242.237 633.086 241.637 632.873 240.912C632.665 240.187 632.561 239.328 632.561 238.336C632.561 237.344 632.665 236.485 632.873 235.76C633.086 235.035 633.377 234.435 633.745 233.96C634.113 233.485 634.542 233.133 635.033 232.904C635.523 232.669 636.049 232.552 636.609 232.552C637.169 232.552 637.694 232.669 638.185 232.904C638.681 233.133 639.113 233.485 639.481 233.96C639.849 234.435 640.139 235.035 640.353 235.76C640.566 236.485 640.673 237.344 640.673 238.336ZM639.873 238.336C639.873 237.419 639.785 236.635 639.609 235.984C639.433 235.333 639.195 234.803 638.897 234.392C638.603 233.976 638.257 233.672 637.857 233.48C637.462 233.288 637.046 233.192 636.609 233.192C636.171 233.192 635.755 233.288 635.361 233.48C634.966 233.672 634.619 233.976 634.321 234.392C634.022 234.803 633.785 235.333 633.609 235.984C633.433 236.635 633.345 237.419 633.345 238.336C633.345 239.259 633.433 240.045 633.609 240.696C633.785 241.341 634.022 241.872 634.321 242.288C634.619 242.699 634.966 243 635.361 243.192C635.755 243.379 636.171 243.472 636.609 243.472C637.046 243.472 637.462 243.379 637.857 243.192C638.257 243 638.603 242.699 638.897 242.288C639.195 241.872 639.433 241.341 639.609 240.696C639.785 240.045 639.873 239.259 639.873 238.336ZM649.21 243.28C649.295 243.28 649.362 243.307 649.41 243.36C649.458 243.408 649.482 243.472 649.482 243.552V244H642.178V243.728C642.178 243.669 642.191 243.611 642.218 243.552C642.25 243.488 642.29 243.435 642.338 243.392L646.202 239.48C646.522 239.155 646.818 238.84 647.09 238.536C647.362 238.232 647.596 237.925 647.794 237.616C647.996 237.307 648.154 236.989 648.266 236.664C648.378 236.339 648.434 235.992 648.434 235.624C648.434 235.208 648.364 234.848 648.226 234.544C648.087 234.235 647.903 233.981 647.674 233.784C647.444 233.587 647.178 233.44 646.874 233.344C646.57 233.248 646.255 233.2 645.93 233.2C645.572 233.2 645.242 233.256 644.938 233.368C644.639 233.475 644.372 233.627 644.138 233.824C643.908 234.016 643.716 234.248 643.562 234.52C643.412 234.787 643.308 235.08 643.25 235.4C643.212 235.517 643.162 235.595 643.098 235.632C643.039 235.669 642.956 235.683 642.85 235.672L642.458 235.608C642.527 235.123 642.66 234.691 642.858 234.312C643.055 233.933 643.306 233.613 643.61 233.352C643.914 233.091 644.266 232.893 644.666 232.76C645.066 232.621 645.498 232.552 645.962 232.552C646.394 232.552 646.804 232.616 647.194 232.744C647.588 232.867 647.935 233.056 648.234 233.312C648.538 233.563 648.778 233.88 648.954 234.264C649.13 234.643 649.218 235.088 649.218 235.6C649.218 236.027 649.151 236.424 649.018 236.792C648.89 237.155 648.714 237.504 648.49 237.84C648.266 238.176 648.004 238.504 647.706 238.824C647.412 239.139 647.103 239.461 646.778 239.792L643.234 243.408C643.404 243.365 643.58 243.333 643.762 243.312C643.948 243.291 644.135 243.28 644.322 243.28H649.21Z" fill="black"/>
<rect x="123" y="45" width="22" height="175" fill="#FEBA12"/>
<rect x="167" y="140" width="22" height="80" fill="#FEBA12"/>
<rect x="211" y="85" width="22" height="135" fill="#FEBA12"/>
<rect x="255" y="45" width="22" height="175" fill="#FEBA12"/>
<rect x="299" y="186" width="22" height="34" fill="#FEBA12"/>
<rect x="343" y="185" width="22" height="35" fill="#FEBA12"/>
<rect x="387" y="85" width="22" height="135" fill="#FEBA12"/>
<rect x="431" y="15" width="22" height="205" fill="#FEBA12"/>
<rect x="475" y="127" width="22" height="93" fill="#FEBA12"/>
<rect x="519" y="70" width="22" height="150" fill="#FEBA12"/>
<rect x="563" y="32" width="22" height="188" fill="#FEBA12"/>
<rect x="607" y="62" width="22" height="158" fill="#FEBA12"/>
<path d="M9.89469 198.096C9.94802 198.096 9.99335 198.115 10.0307 198.152L10.3507 198.496C10.116 198.747 9.86002 198.973 9.58269 199.176C9.31069 199.373 9.00935 199.544 8.67869 199.688C8.35335 199.827 7.99335 199.933 7.59869 200.008C7.20935 200.088 6.78002 200.128 6.31069 200.128C5.52669 200.128 4.80669 199.992 4.15069 199.72C3.50002 199.443 2.94002 199.053 2.47069 198.552C2.00135 198.045 1.63602 197.435 1.37469 196.72C1.11869 196.005 0.990688 195.211 0.990688 194.336C0.990688 193.477 1.12402 192.693 1.39069 191.984C1.65735 191.275 2.03069 190.667 2.51069 190.16C2.99069 189.648 3.56669 189.253 4.23869 188.976C4.91069 188.693 5.65202 188.552 6.46269 188.552C7.23602 188.552 7.92135 188.672 8.51869 188.912C9.11602 189.152 9.66002 189.491 10.1507 189.928L9.90269 190.288C9.86002 190.352 9.79335 190.384 9.70269 190.384C9.63869 190.384 9.53469 190.325 9.39069 190.208C9.24669 190.091 9.04669 189.963 8.79069 189.824C8.53469 189.68 8.21469 189.549 7.83069 189.432C7.45202 189.315 6.99602 189.256 6.46269 189.256C5.78002 189.256 5.15335 189.373 4.58269 189.608C4.01735 189.843 3.52935 190.179 3.11869 190.616C2.71335 191.053 2.39602 191.587 2.16669 192.216C1.93735 192.845 1.82269 193.552 1.82269 194.336C1.82269 195.136 1.93735 195.851 2.16669 196.48C2.40135 197.109 2.72135 197.643 3.12669 198.08C3.53202 198.512 4.00935 198.845 4.55869 199.08C5.11335 199.309 5.71069 199.424 6.35069 199.424C6.75602 199.424 7.11602 199.397 7.43069 199.344C7.75069 199.291 8.04402 199.211 8.31069 199.104C8.57735 198.997 8.82535 198.867 9.05469 198.712C9.28402 198.557 9.51069 198.376 9.73469 198.168C9.76135 198.147 9.78802 198.131 9.81469 198.12C9.84135 198.104 9.86802 198.096 9.89469 198.096ZM18.1989 192.04V200H17.7749C17.6416 200 17.5643 199.931 17.5429 199.792L17.4709 198.608C17.1029 199.067 16.6763 199.435 16.1909 199.712C15.7109 199.989 15.1749 200.128 14.5829 200.128C14.1403 200.128 13.7536 200.059 13.4229 199.92C13.0923 199.781 12.8176 199.581 12.5989 199.32C12.3803 199.059 12.2149 198.744 12.1029 198.376C11.9909 198.008 11.9349 197.592 11.9349 197.128V192.04H12.7029V197.128C12.7029 197.875 12.8736 198.461 13.2149 198.888C13.5563 199.309 14.0763 199.52 14.7749 199.52C15.2923 199.52 15.7749 199.389 16.2229 199.128C16.6763 198.861 17.0789 198.493 17.4309 198.024V192.04H18.1989ZM25.1958 193.024C25.1531 193.099 25.0918 193.136 25.0118 193.136C24.9531 193.136 24.8785 193.104 24.7878 193.04C24.6971 192.971 24.5745 192.896 24.4198 192.816C24.2705 192.731 24.0838 192.656 23.8598 192.592C23.6358 192.523 23.3638 192.488 23.0438 192.488C22.7558 192.488 22.4918 192.531 22.2518 192.616C22.0171 192.696 21.8145 192.805 21.6438 192.944C21.4785 193.083 21.3505 193.245 21.2598 193.432C21.1691 193.613 21.1238 193.805 21.1238 194.008C21.1238 194.259 21.1878 194.467 21.3158 194.632C21.4438 194.797 21.6091 194.939 21.8118 195.056C22.0198 195.173 22.2571 195.275 22.5238 195.36C22.7905 195.445 23.0598 195.531 23.3318 195.616C23.6091 195.701 23.8811 195.797 24.1478 195.904C24.4145 196.005 24.6491 196.133 24.8518 196.288C25.0598 196.443 25.2278 196.632 25.3558 196.856C25.4838 197.08 25.5478 197.352 25.5478 197.672C25.5478 198.019 25.4865 198.341 25.3638 198.64C25.2411 198.939 25.0598 199.197 24.8198 199.416C24.5851 199.635 24.2945 199.808 23.9478 199.936C23.6011 200.064 23.2038 200.128 22.7558 200.128C22.1958 200.128 21.7131 200.04 21.3078 199.864C20.9025 199.683 20.5398 199.448 20.2198 199.16L20.3958 198.888C20.4225 198.845 20.4518 198.813 20.4838 198.792C20.5211 198.771 20.5691 198.76 20.6278 198.76C20.6971 198.76 20.7798 198.803 20.8758 198.888C20.9771 198.973 21.1105 199.067 21.2758 199.168C21.4411 199.264 21.6438 199.355 21.8838 199.44C22.1291 199.525 22.4305 199.568 22.7878 199.568C23.1238 199.568 23.4198 199.523 23.6758 199.432C23.9318 199.336 24.1451 199.208 24.3158 199.048C24.4865 198.888 24.6145 198.701 24.6998 198.488C24.7905 198.269 24.8358 198.04 24.8358 197.8C24.8358 197.533 24.7718 197.312 24.6438 197.136C24.5158 196.96 24.3478 196.811 24.1398 196.688C23.9318 196.565 23.6945 196.461 23.4278 196.376C23.1665 196.291 22.8971 196.205 22.6198 196.12C22.3425 196.035 22.0705 195.941 21.8038 195.84C21.5425 195.739 21.3078 195.611 21.0998 195.456C20.8918 195.301 20.7238 195.115 20.5958 194.896C20.4678 194.672 20.4038 194.395 20.4038 194.064C20.4038 193.781 20.4651 193.509 20.5878 193.248C20.7105 192.987 20.8838 192.757 21.1078 192.56C21.3371 192.363 21.6145 192.205 21.9398 192.088C22.2651 191.971 22.6305 191.912 23.0358 191.912C23.5211 191.912 23.9505 191.981 24.3238 192.12C24.7025 192.259 25.0465 192.472 25.3558 192.76L25.1958 193.024ZM29.7927 200.128C29.254 200.128 28.8327 199.979 28.5287 199.68C28.23 199.381 28.0807 198.92 28.0807 198.296V192.856H26.9367C26.878 192.856 26.83 192.84 26.7927 192.808C26.7554 192.776 26.7367 192.731 26.7367 192.672V192.376L28.0967 192.28L28.2887 189.432C28.2994 189.384 28.3207 189.341 28.3527 189.304C28.3847 189.267 28.43 189.248 28.4887 189.248H28.8487V192.288H31.3607V192.856H28.8487V198.256C28.8487 198.475 28.8754 198.664 28.9287 198.824C28.9874 198.979 29.0647 199.107 29.1607 199.208C29.262 199.309 29.3794 199.384 29.5127 199.432C29.646 199.48 29.79 199.504 29.9447 199.504C30.1367 199.504 30.302 199.477 30.4407 199.424C30.5794 199.365 30.6994 199.304 30.8007 199.24C30.902 199.171 30.9847 199.109 31.0487 199.056C31.1127 198.997 31.1634 198.968 31.2007 198.968C31.2434 198.968 31.286 198.995 31.3287 199.048L31.5367 199.384C31.334 199.608 31.0754 199.789 30.7607 199.928C30.4514 200.061 30.1287 200.128 29.7927 200.128ZM36.2218 191.912C36.7925 191.912 37.3018 192.011 37.7498 192.208C38.2031 192.4 38.5845 192.675 38.8938 193.032C39.2031 193.389 39.4378 193.821 39.5978 194.328C39.7631 194.829 39.8458 195.392 39.8458 196.016C39.8458 196.64 39.7631 197.203 39.5978 197.704C39.4378 198.205 39.2031 198.635 38.8938 198.992C38.5845 199.349 38.2031 199.624 37.7498 199.816C37.3018 200.008 36.7925 200.104 36.2218 200.104C35.6511 200.104 35.1391 200.008 34.6858 199.816C34.2378 199.624 33.8565 199.349 33.5418 198.992C33.2325 198.635 32.9951 198.205 32.8298 197.704C32.6698 197.203 32.5898 196.64 32.5898 196.016C32.5898 195.392 32.6698 194.829 32.8298 194.328C32.9951 193.821 33.2325 193.389 33.5418 193.032C33.8565 192.675 34.2378 192.4 34.6858 192.208C35.1391 192.011 35.6511 191.912 36.2218 191.912ZM36.2218 199.504C36.6965 199.504 37.1098 199.424 37.4618 199.264C37.8191 199.099 38.1151 198.864 38.3498 198.56C38.5898 198.256 38.7685 197.891 38.8858 197.464C39.0031 197.032 39.0618 196.549 39.0618 196.016C39.0618 195.488 39.0031 195.008 38.8858 194.576C38.7685 194.144 38.5898 193.776 38.3498 193.472C38.1151 193.163 37.8191 192.925 37.4618 192.76C37.1098 192.595 36.6965 192.512 36.2218 192.512C35.7471 192.512 35.3311 192.595 34.9738 192.76C34.6218 192.925 34.3258 193.163 34.0858 193.472C33.8511 193.776 33.6725 194.144 33.5498 194.576C33.4325 195.008 33.3738 195.488 33.3738 196.016C33.3738 196.549 33.4325 197.032 33.5498 197.464C33.6725 197.891 33.8511 198.256 34.0858 198.56C34.3258 198.864 34.6218 199.099 34.9738 199.264C35.3311 199.424 35.7471 199.504 36.2218 199.504ZM50.3594 199.344C51.3514 199.344 52.1008 199.131 52.6074 198.704C53.1194 198.272 53.3754 197.667 53.3754 196.888C53.3754 196.531 53.3061 196.211 53.1674 195.928C53.0341 195.64 52.8394 195.397 52.5834 195.2C52.3274 194.997 52.0128 194.843 51.6394 194.736C51.2661 194.629 50.8421 194.576 50.3674 194.576H47.5194V199.344H50.3594ZM47.5194 189.328V193.976H49.9674C50.4901 193.976 50.9354 193.909 51.3034 193.776C51.6768 193.643 51.9808 193.467 52.2154 193.248C52.4554 193.029 52.6314 192.781 52.7434 192.504C52.8554 192.227 52.9114 191.941 52.9114 191.648C52.9114 190.885 52.6688 190.309 52.1834 189.92C51.7034 189.525 50.9594 189.328 49.9514 189.328H47.5194ZM49.9514 188.68C50.5968 188.68 51.1568 188.744 51.6314 188.872C52.1061 189 52.4981 189.189 52.8074 189.44C53.1168 189.685 53.3461 189.987 53.4954 190.344C53.6448 190.701 53.7194 191.107 53.7194 191.56C53.7194 191.859 53.6661 192.147 53.5594 192.424C53.4581 192.701 53.3088 192.957 53.1114 193.192C52.9194 193.427 52.6794 193.632 52.3914 193.808C52.1088 193.979 51.7834 194.109 51.4154 194.2C52.3061 194.328 52.9888 194.624 53.4634 195.088C53.9434 195.547 54.1834 196.152 54.1834 196.904C54.1834 197.384 54.0981 197.816 53.9274 198.2C53.7568 198.584 53.5088 198.909 53.1834 199.176C52.8581 199.443 52.4581 199.648 51.9834 199.792C51.5088 199.931 50.9701 200 50.3674 200H46.6954V188.68H49.9514ZM59.5888 194.272C60.0901 194.272 60.5381 194.213 60.9328 194.096C61.3328 193.973 61.6688 193.8 61.9408 193.576C62.2181 193.352 62.4288 193.083 62.5728 192.768C62.7168 192.453 62.7888 192.099 62.7888 191.704C62.7888 190.899 62.5248 190.301 61.9968 189.912C61.4741 189.523 60.7088 189.328 59.7008 189.328H57.6288V194.272H59.5888ZM64.6128 200H63.9088C63.8181 200 63.7408 199.987 63.6768 199.96C63.6181 199.928 63.5621 199.872 63.5088 199.792L59.8768 195.2C59.8341 195.141 59.7888 195.091 59.7408 195.048C59.6981 195.005 59.6475 194.973 59.5888 194.952C59.5355 194.925 59.4688 194.907 59.3888 194.896C59.3141 194.885 59.2208 194.88 59.1088 194.88H57.6288V200H56.8048V188.68H59.7008C61.0021 188.68 61.9755 188.933 62.6208 189.44C63.2715 189.941 63.5968 190.68 63.5968 191.656C63.5968 192.088 63.5221 192.483 63.3728 192.84C63.2235 193.197 63.0075 193.512 62.7248 193.784C62.4475 194.051 62.1088 194.269 61.7088 194.44C61.3141 194.611 60.8688 194.725 60.3728 194.784C60.5008 194.864 60.6155 194.971 60.7168 195.104L64.6128 200ZM72.7076 199.304V200H66.5236V188.68H67.3476V199.304H72.7076Z" fill="black"/>
</svg>
