<svg width="237" height="206" viewBox="0 0 237 206" fill="none" xmlns="http://www.w3.org/2000/svg">
<path d="M193.602 29.2132C176.787 11.452 153.64 0.96276 129.134 0V93.3513L193.602 29.2132Z" fill="#595A5C"/>
<path d="M193.602 40.8367L129.134 104.975H219.23C219.262 81.1185 210.088 58.1601 193.602 40.8367V40.8367Z" fill="#E4E4E4"/>
<path d="M219.326 111.683C219.33 117.501 218.789 123.307 217.71 129.026C217.626 129.479 217.538 129.927 217.445 130.375C215.411 140.35 211.739 149.924 206.576 158.712C206.302 159.183 206.019 159.654 205.735 160.116V160.121C200.647 168.45 194.285 175.938 186.877 182.316C186.51 182.635 186.143 182.949 185.772 183.259C169.852 196.584 149.921 204.246 129.132 205.034V111.683H219.326Z" fill="#F0F0F0"/>
<path d="M120.02 205.115C121.267 205.115 122.506 205.083 123.742 205.035V111.681L55.5009 179.572C72.9189 196.003 96.0166 205.147 120.02 205.115V205.115Z" fill="#CACACA"/>
<path d="M120.147 11.5402C68.2787 11.5402 26.2314 53.3722 26.2314 104.975H123.966V11.6235C122.699 11.573 121.427 11.5402 120.147 11.5402Z" fill="#FEBA12"/>
<path d="M97.7416 111.683L77.9963 131.327L77.3506 131.969L77.3366 131.983L60.118 149.109L59.4633 149.761L40.8604 168.268L40.2054 168.92V168.924L29.499 179.571C20.2025 170.849 12.7986 160.327 7.74287 148.652C2.68717 136.977 0.0867014 124.395 0.101503 111.683H97.7416Z" fill="#FEBA12"/>
<path d="M235.839 205.639H58.8685C58.7454 205.639 58.6272 205.59 58.5401 205.504C58.453 205.417 58.4041 205.299 58.4041 205.177C58.4041 205.054 58.453 204.937 58.5401 204.85C58.6272 204.763 58.7454 204.715 58.8685 204.715H235.839C235.962 204.715 236.08 204.763 236.167 204.85C236.254 204.937 236.303 205.054 236.303 205.177C236.303 205.299 236.254 205.417 236.167 205.504C236.08 205.59 235.962 205.639 235.839 205.639Z" fill="#FEBA12"/>
<path d="M28.9091 20.795C33.0136 20.795 36.3409 17.4847 36.3409 13.4012C36.3409 9.31774 33.0136 6.00745 28.9091 6.00745C24.8046 6.00745 21.4773 9.31774 21.4773 13.4012C21.4773 17.4847 24.8046 20.795 28.9091 20.795Z" fill="#595A5C"/>
<path d="M40.2055 168.924C24.7959 153.741 15.7917 133.279 15.0308 111.716L16.8876 111.65C17.6322 132.744 26.4408 152.76 41.5152 167.613L40.2055 168.924Z" fill="#3F3D56"/>
<path d="M60.1367 149.128L58.7897 150.394C48.5245 139.61 41.2792 126.338 37.7761 111.9L38.6774 111.683H39.6341C43.0794 125.716 50.1391 138.615 60.1181 149.109L60.1367 149.128Z" fill="#3F3D56"/>
<path d="M78.0473 131.392L77.3506 131.969L77.3365 131.983L76.6214 132.575C71.4095 126.373 67.1145 119.462 63.8663 112.052L64.7164 111.683H65.7338C68.8797 118.768 73.0073 125.38 77.9963 131.327C78.0118 131.35 78.0288 131.371 78.0473 131.392Z" fill="#3F3D56"/>
</svg>
