<svg width="506" height="382" viewBox="0 0 506 382" fill="none" xmlns="http://www.w3.org/2000/svg">
<g clip-path="url(#clip0_3_164)">
<path d="M431.955 378.132C437.324 365.355 441.109 351.447 439.317 337.684C438.703 333.017 437.366 328.478 435.356 324.235C433.737 320.777 431.646 317.567 429.146 314.702C428.281 313.691 427.095 313.021 425.793 312.808C424.492 312.595 423.158 312.854 422.025 313.538C421.85 313.641 421.675 313.75 421.513 313.867C420.636 314.494 419.945 315.353 419.513 316.351C419.429 316.542 419.359 316.739 419.304 316.94C419.056 317.78 418.99 318.665 419.109 319.534C420.053 326.617 419.848 333.809 418.502 340.825C418.159 342.612 417.739 344.382 417.243 346.136C416.128 344.723 414.943 343.368 413.693 342.078C410.45 338.739 406.711 335.94 402.611 333.783H402.605C402.584 333.769 402.571 333.762 402.551 333.749C397.579 331.175 390.951 332.243 387.077 333.995C386.822 334.105 386.579 334.228 386.343 334.344C384.322 335.398 383.319 336.61 384.181 337.403C384.376 337.575 384.572 337.752 384.753 337.93C390.626 343.446 395.436 350.023 398.94 357.327V357.333C400.333 360.241 401.506 363.252 402.45 366.34C403.75 370.604 404.828 375.333 407.367 378.81C407.627 379.176 407.908 379.526 408.209 379.857L430.897 379.672C430.951 379.645 430.998 379.625 431.052 379.597L431.955 379.631C431.921 379.467 431.881 379.303 431.84 379.139V379.125C431.82 379.036 431.793 378.94 431.773 378.858C431.753 378.79 431.739 378.728 431.726 378.673C431.766 378.571 431.806 378.475 431.854 378.372C431.887 378.29 431.921 378.215 431.955 378.132Z" fill="#F0F0F0"/>
<path d="M431.84 380.125C431.833 380.176 431.813 380.225 431.783 380.266C431.752 380.307 431.711 380.34 431.664 380.36C431.618 380.381 431.567 380.389 431.516 380.384C431.465 380.378 431.417 380.36 431.375 380.33C430.443 379.643 429.42 379.093 428.337 378.695C428.331 378.688 428.33 378.695 428.33 378.695C426.964 378.195 425.557 377.815 424.127 377.558C424.114 377.558 424.107 377.552 424.093 377.552C423.514 377.435 422.935 377.333 422.355 377.223C419.54 376.696 416.677 376.06 414.238 374.431C413.246 373.806 412.395 372.975 411.741 371.993C411.087 371.01 410.646 369.898 410.446 368.73C410.089 366.437 410.54 364.13 410.729 361.844C410.742 361.68 410.756 361.509 410.762 361.345C410.776 361.133 410.782 360.927 410.782 360.722C410.852 358.647 410.441 356.584 409.583 354.699C408.482 352.443 407.036 350.378 405.299 348.581C404.403 347.602 403.469 346.66 402.497 345.754H402.49C402.45 345.713 402.416 345.679 402.376 345.644C402.376 345.638 402.369 345.631 402.362 345.624C398.205 341.787 393.49 338.624 388.384 336.248C388.202 336.165 388.014 336.076 387.825 335.994C387.333 335.768 386.842 335.556 386.343 335.344C386.579 335.228 386.821 335.105 387.077 334.995C392.773 337.443 398.029 340.833 402.632 345.028C402.786 345.165 402.941 345.309 403.09 345.453C404.255 346.548 405.364 347.695 406.417 348.895C408.101 350.738 409.466 352.858 410.452 355.165C411.176 357.031 411.495 359.034 411.389 361.037C411.375 361.42 411.348 361.803 411.315 362.193C411.106 364.5 410.641 366.882 411.16 369.188C411.752 371.816 413.76 373.65 416.091 374.773C417.633 375.472 419.253 375.982 420.914 376.292C424.349 377.025 427.899 377.38 430.904 379.256H430.911C430.958 379.29 431.005 379.317 431.045 379.345C431.052 379.345 431.052 379.345 431.052 379.352C431.269 379.483 431.478 379.627 431.678 379.783C431.692 379.79 431.705 379.803 431.719 379.81C431.738 379.824 431.756 379.84 431.773 379.858C431.804 379.894 431.826 379.937 431.838 379.983C431.85 380.03 431.85 380.078 431.84 380.125Z" fill="white"/>
<path d="M402.913 345.687C404.137 344.145 404.781 342.211 404.731 340.23C404.682 338.249 403.94 336.351 402.64 334.874C402.376 334.577 401.908 334.98 402.172 335.278C403.386 336.651 404.076 338.419 404.119 340.263C404.162 342.108 403.554 343.907 402.406 345.337C402.157 345.648 402.665 345.997 402.913 345.687Z" fill="white"/>
<path d="M410.978 360.701C407.018 361.169 403.03 360.103 399.809 357.716C399.49 357.479 399.145 357.994 399.464 358.231C402.82 360.708 406.972 361.809 411.092 361.313C411.485 361.266 411.368 360.654 410.978 360.701Z" fill="white"/>
<path d="M388.425 336.172C388.411 336.2 388.398 336.22 388.384 336.248C388.013 336.941 387.495 337.541 386.867 338.005C386.239 338.469 385.517 338.785 384.753 338.93C384.572 338.752 384.376 338.575 384.181 338.403C384.211 338.384 384.246 338.372 384.282 338.369C385.016 338.287 385.72 338.029 386.336 337.616C386.952 337.203 387.462 336.647 387.825 335.994C387.859 335.94 387.893 335.878 387.92 335.823C387.942 335.789 387.971 335.76 388.004 335.738C388.038 335.715 388.075 335.7 388.115 335.692C388.154 335.685 388.195 335.685 388.234 335.693C388.274 335.702 388.311 335.718 388.344 335.741C388.409 335.789 388.453 335.86 388.468 335.94C388.483 336.02 388.468 336.103 388.425 336.172Z" fill="white"/>
<path d="M49.3508 3.72533C37.2388 3.7392 25.6268 8.63381 17.0624 17.3353C8.49787 26.0368 3.68034 37.8346 3.66669 50.1404V228.018C3.68034 240.324 8.49787 252.121 17.0624 260.823C25.6268 269.524 37.2388 274.419 49.3508 274.433H456.649C468.761 274.419 480.373 269.524 488.938 260.823C497.502 252.121 502.32 240.324 502.333 228.018V50.1404C502.32 37.8346 497.502 26.0368 488.938 17.3353C480.373 8.63381 468.761 3.7392 456.649 3.72533H49.3508Z" fill="white"/>
<path d="M456.649 278.158H49.3508C36.2667 278.143 23.7227 272.856 14.4708 263.456C5.21896 254.056 0.0147882 241.311 6.10352e-05 228.018V50.1404C0.0147882 36.847 5.21896 24.1023 14.4708 14.7023C23.7227 5.30244 36.2667 0.0150066 49.3508 4.3869e-05H456.649C469.733 0.0149976 482.277 5.30243 491.529 14.7023C500.781 24.1022 505.985 36.847 506 50.1404V228.018C505.985 241.311 500.781 254.056 491.529 263.456C482.277 272.856 469.733 278.143 456.649 278.158ZM49.3508 7.45068C38.211 7.46348 27.531 11.9652 19.6539 19.9683C11.7768 27.9715 7.34596 38.8223 7.33337 50.1404V228.018C7.34596 239.336 11.7768 250.187 19.6539 258.19C27.531 266.193 38.211 270.695 49.3508 270.708H456.649C467.789 270.695 478.469 266.193 486.346 258.19C494.223 250.187 498.654 239.336 498.667 228.018V50.1404C498.654 38.8223 494.223 27.9715 486.346 19.9683C478.469 11.9652 467.789 7.46348 456.649 7.45068H49.3508Z" fill="#E6E6E6"/>
<path d="M254.094 40.553H60.3959C56.2618 40.5602 52.2992 42.2319 49.376 45.2019C46.4528 48.1719 44.8074 52.1979 44.8003 56.3981V145.16C44.7986 146.102 44.8845 147.042 45.057 147.967C45.1181 148.389 45.2159 148.799 45.3136 149.209C46.2009 152.586 48.1594 155.573 50.886 157.705C53.6125 159.838 56.9549 160.998 60.3959 161.005H254.094C254.411 161.005 254.729 160.993 255.035 160.968H255.255V160.956C255.316 160.958 255.378 160.954 255.438 160.943C255.499 160.943 255.573 160.931 255.634 160.931C255.655 160.933 255.676 160.929 255.695 160.919C255.829 160.906 255.964 160.894 256.086 160.881C256.306 160.844 256.526 160.819 256.734 160.782C256.761 160.772 256.79 160.768 256.819 160.77C256.857 160.751 256.899 160.742 256.941 160.745C256.946 160.74 256.952 160.736 256.958 160.734C256.965 160.732 256.971 160.731 256.978 160.732C257.113 160.707 257.247 160.683 257.381 160.645C257.456 160.635 257.529 160.618 257.601 160.596C257.87 160.534 258.139 160.472 258.396 160.385C258.518 160.347 258.628 160.323 258.75 160.285C258.909 160.236 259.08 160.173 259.239 160.111C259.323 160.088 259.404 160.059 259.484 160.024C259.493 160.024 259.502 160.022 259.511 160.018C259.519 160.013 259.527 160.007 259.533 160C259.886 159.873 260.233 159.728 260.571 159.565C260.865 159.428 261.146 159.279 261.427 159.13C261.537 159.081 261.635 159.019 261.745 158.957C261.772 158.944 261.797 158.928 261.818 158.907C262.099 158.733 262.38 158.559 262.649 158.398C262.661 158.385 262.661 158.373 262.674 158.373C262.675 158.373 262.677 158.373 262.678 158.372C262.68 158.371 262.681 158.371 262.682 158.369C262.683 158.368 262.684 158.367 262.685 158.365C262.686 158.364 262.686 158.362 262.686 158.361C262.973 158.177 263.251 157.978 263.517 157.765H263.529C263.603 157.702 263.664 157.653 263.725 157.603C263.81 157.541 263.896 157.466 263.969 157.404C264.116 157.28 264.262 157.156 264.397 157.032C264.48 156.968 264.558 156.898 264.629 156.821C264.837 156.634 265.033 156.436 265.228 156.237C265.332 156.136 265.43 156.028 265.521 155.914C265.674 155.766 265.816 155.609 265.949 155.442C266.071 155.281 266.206 155.12 266.328 154.958C266.473 154.789 266.608 154.61 266.731 154.424C266.951 154.126 267.147 153.828 267.343 153.505C267.501 153.244 267.66 152.971 267.807 152.698C267.88 152.561 267.954 152.412 268.027 152.263C268.039 152.263 268.039 152.251 268.039 152.239C268.174 151.978 268.296 151.717 268.406 151.444C268.455 151.332 268.504 151.233 268.54 151.121C268.638 150.91 268.711 150.686 268.797 150.463C268.931 150.053 269.066 149.631 269.176 149.209C269.274 148.799 269.371 148.389 269.432 147.967C269.605 147.042 269.691 146.102 269.689 145.16V56.3981C269.682 52.198 268.037 48.1719 265.113 45.2019C262.19 42.2319 258.228 40.5602 254.094 40.553Z" fill="#FEBA12"/>
<path opacity="0.3" d="M269.689 66.0095H44.8003V67.2512H269.689V66.0095Z" fill="white"/>
<path opacity="0.3" d="M269.689 79.669H44.8003V80.9108H269.689V79.669Z" fill="white"/>
<path opacity="0.3" d="M269.689 93.3286H44.8003V94.5703H269.689V93.3286Z" fill="white"/>
<path opacity="0.3" d="M269.689 106.988H44.8003V108.23H269.689V106.988Z" fill="white"/>
<path opacity="0.3" d="M269.689 120.648H44.8003V121.889H269.689V120.648Z" fill="white"/>
<path opacity="0.3" d="M269.689 134.307H44.8003V135.549H269.689V134.307Z" fill="white"/>
<path opacity="0.3" d="M269.433 147.967C269.371 148.389 269.274 148.799 269.176 149.209H44.9714C44.8977 148.798 44.8488 148.383 44.8248 147.967H269.433Z" fill="white"/>
<g opacity="0.1">
<path d="M269.689 125.938V145.16C269.691 146.102 269.605 147.042 269.432 147.967C269.371 148.389 269.274 148.799 269.176 149.209C269.066 149.631 268.931 150.053 268.797 150.463C268.711 150.686 268.638 150.91 268.54 151.121C268.504 151.233 268.455 151.332 268.406 151.444C268.296 151.717 268.174 151.978 268.039 152.239C268.039 152.251 268.039 152.263 268.027 152.263C267.954 152.412 267.88 152.561 267.807 152.698C267.66 152.971 267.501 153.244 267.342 153.505C267.147 153.828 266.951 154.126 266.731 154.424C266.608 154.61 266.473 154.788 266.328 154.958C266.206 155.119 266.071 155.281 265.949 155.442C265.816 155.608 265.674 155.766 265.521 155.914C265.43 156.028 265.332 156.136 265.228 156.237C265.033 156.436 264.837 156.634 264.629 156.821C264.558 156.897 264.48 156.968 264.397 157.032C264.262 157.156 264.116 157.28 263.969 157.404C263.896 157.466 263.81 157.541 263.725 157.603C263.664 157.653 263.603 157.702 263.529 157.764H263.517C263.251 157.978 262.973 158.177 262.686 158.36C262.686 158.362 262.686 158.364 262.685 158.365C262.684 158.367 262.683 158.368 262.682 158.369C262.681 158.37 262.68 158.371 262.678 158.372C262.677 158.373 262.675 158.373 262.674 158.373C262.661 158.373 262.661 158.385 262.649 158.398C262.478 158.522 262.295 158.634 262.111 158.745C262.014 158.807 261.916 158.857 261.818 158.907C261.797 158.928 261.772 158.944 261.745 158.956C261.635 159.019 261.537 159.081 261.427 159.13C261.146 159.279 260.865 159.428 260.571 159.565C260.233 159.728 259.886 159.873 259.533 160C259.527 160.007 259.519 160.013 259.511 160.018C259.502 160.022 259.493 160.024 259.484 160.024C259.404 160.059 259.322 160.088 259.239 160.111C259.08 160.173 258.909 160.236 258.75 160.285C258.628 160.322 258.518 160.347 258.396 160.385C258.139 160.471 257.87 160.534 257.601 160.596C257.529 160.618 257.456 160.635 257.381 160.645C257.247 160.683 257.113 160.707 256.978 160.732C256.971 160.731 256.965 160.732 256.958 160.734C256.952 160.736 256.946 160.74 256.941 160.745C256.899 160.742 256.857 160.75 256.819 160.769C256.79 160.767 256.761 160.772 256.734 160.782C256.526 160.819 256.306 160.844 256.086 160.881C255.964 160.894 255.829 160.906 255.695 160.918C255.676 160.928 255.655 160.933 255.634 160.931C255.499 160.943 255.377 160.956 255.255 160.968H255.23C255.096 160.981 254.961 160.981 254.827 160.993C254.583 161.005 254.338 161.005 254.094 161.005H60.3958C56.9549 160.998 53.6125 159.838 50.886 157.705C48.1594 155.573 46.2009 152.586 45.3136 149.208H44.9714C44.8977 148.798 44.8487 148.383 44.8247 147.967C44.8125 147.731 44.8003 147.482 44.8003 147.246V125.59C47.3655 125.667 49.9095 126.089 52.3658 126.844C59.0147 128.905 65.4802 132.395 72.4224 132.395C72.9725 132.395 73.5469 132.37 74.1091 132.32C81.4181 131.699 87.1014 127.093 91.8313 121.889C92.2102 121.48 92.5891 121.07 92.9436 120.648C93.8358 119.642 94.6914 118.611 95.5225 117.593C98.1778 114.186 101.154 111.05 104.408 108.23C104.934 107.795 105.459 107.386 105.997 106.988C109.153 104.597 112.869 103.086 116.777 102.605C117.278 102.555 117.779 102.518 118.28 102.505C123.511 102.344 128.425 104.256 132.898 106.988C133.546 107.386 134.194 107.795 134.817 108.23C136.956 109.703 139.016 111.291 140.989 112.986C144.035 115.704 147.217 118.262 150.523 120.648C150.767 120.822 151.011 120.995 151.256 121.144C151.635 121.405 152.026 121.654 152.417 121.889C155.765 124.076 159.53 125.519 163.466 126.124C163.6 126.149 163.747 126.174 163.894 126.186C170.261 126.944 176.189 125.031 181.604 121.889C182.276 121.492 182.96 121.082 183.62 120.648C187.85 117.792 191.814 114.55 195.464 110.962C196.417 110.055 197.383 109.136 198.385 108.23C198.837 107.82 199.289 107.398 199.754 106.988C207.014 100.506 215.386 94.5704 225.274 94.5704C225.689 94.5704 226.117 94.5828 226.545 94.6076C233.658 94.9553 239.904 98.4571 245.147 102.903C246.67 104.187 248.127 105.55 249.51 106.988C249.571 107.05 249.62 107.1 249.681 107.162C250.024 107.51 250.366 107.87 250.684 108.23C254.595 112.39 258.2 116.835 262.454 120.648C262.918 121.082 263.395 121.492 263.884 121.889C265.35 123.127 266.902 124.255 268.528 125.267C268.907 125.503 269.298 125.727 269.689 125.938Z" fill="black"/>
</g>
<g opacity="0.1">
<path d="M269.689 107.174V145.16C269.691 146.102 269.605 147.042 269.432 147.967C269.371 148.389 269.274 148.799 269.176 149.209C269.066 149.631 268.931 150.053 268.797 150.463C268.711 150.686 268.638 150.91 268.54 151.121C268.504 151.233 268.455 151.332 268.406 151.444C268.296 151.717 268.174 151.978 268.039 152.238C268.039 152.251 268.039 152.263 268.027 152.263C267.954 152.412 267.88 152.561 267.807 152.698C267.66 152.971 267.501 153.244 267.342 153.505C267.147 153.828 266.951 154.126 266.731 154.424C266.608 154.61 266.473 154.788 266.328 154.958C266.206 155.119 266.071 155.281 265.949 155.442C265.816 155.608 265.674 155.766 265.521 155.914C265.43 156.028 265.332 156.136 265.228 156.237C265.033 156.436 264.837 156.634 264.629 156.821C264.558 156.897 264.48 156.968 264.397 157.032C264.262 157.156 264.116 157.28 263.969 157.404C263.896 157.466 263.81 157.541 263.725 157.603C263.664 157.653 263.603 157.702 263.529 157.764H263.517C263.251 157.978 262.973 158.177 262.686 158.36C262.686 158.362 262.686 158.364 262.685 158.365C262.684 158.367 262.683 158.368 262.682 158.369C262.681 158.37 262.68 158.371 262.678 158.372C262.677 158.373 262.675 158.373 262.674 158.373C262.661 158.373 262.661 158.385 262.649 158.398C262.478 158.522 262.295 158.634 262.111 158.745C262.014 158.807 261.916 158.857 261.818 158.907C261.797 158.928 261.772 158.944 261.745 158.956C261.635 159.019 261.537 159.081 261.427 159.13C261.146 159.279 260.865 159.428 260.571 159.565C260.233 159.728 259.886 159.873 259.533 160C259.527 160.007 259.519 160.013 259.511 160.018C259.502 160.022 259.493 160.024 259.484 160.024C259.404 160.059 259.322 160.088 259.239 160.111C259.08 160.173 258.909 160.235 258.75 160.285C258.628 160.322 258.518 160.347 258.396 160.384C258.139 160.471 257.87 160.533 257.601 160.596C257.529 160.618 257.456 160.635 257.381 160.645C257.247 160.683 257.113 160.707 256.978 160.732C256.971 160.731 256.965 160.732 256.958 160.734C256.952 160.736 256.946 160.74 256.941 160.745C256.899 160.742 256.857 160.75 256.819 160.769C256.79 160.767 256.761 160.772 256.734 160.782C256.526 160.819 256.306 160.844 256.086 160.881C255.964 160.894 255.829 160.906 255.695 160.918C255.676 160.928 255.655 160.933 255.634 160.931C255.573 160.931 255.499 160.943 255.438 160.943C255.378 160.954 255.316 160.958 255.255 160.956C255.202 160.966 255.149 160.971 255.096 160.968H255.035C254.974 160.98 254.9 160.98 254.827 160.993C254.583 161.005 254.338 161.005 254.094 161.005H60.3959C56.9549 160.998 53.6125 159.838 50.886 157.705C48.1594 155.573 46.2009 152.586 45.3136 149.208C45.2159 148.799 45.1181 148.389 45.057 147.967C44.8845 147.041 44.7986 146.102 44.8003 145.16V123.044C45.228 122.672 45.6436 122.287 46.0592 121.889C46.487 121.48 46.9025 121.07 47.3181 120.648C50.9587 116.798 54.2744 112.644 57.2303 108.23C57.3281 108.093 57.4259 107.969 57.5114 107.833C57.7069 107.547 57.9025 107.274 58.1103 106.988C61.0745 102.58 64.3897 98.4272 68.0225 94.5703C68.4381 94.1481 68.8536 93.7383 69.2814 93.3286C73.8281 88.9823 79.0103 85.7413 85.1214 84.9713C93.5425 83.9034 101.377 87.8647 108.307 93.3286C108.82 93.7383 109.321 94.1481 109.823 94.5703C112.194 96.5323 114.442 98.6682 116.569 100.792C117.131 101.363 117.706 101.934 118.28 102.505C119.759 104.008 121.275 105.51 122.802 106.988C123.242 107.41 123.67 107.82 124.11 108.23C130.221 113.979 136.834 119.033 144.692 120.648C145.23 120.759 145.78 120.859 146.33 120.933C149.3 121.335 152.314 121.238 155.252 120.648C155.741 120.561 156.218 120.449 156.707 120.325C164.065 118.475 170.885 113.818 177.057 108.23C177.497 107.82 177.949 107.41 178.389 106.988C181.543 104.02 184.537 100.841 187.336 97.712C188.265 96.669 189.218 95.6134 190.171 94.5703C190.563 94.1605 190.941 93.7507 191.32 93.3286C195.411 88.7994 199.885 84.6442 204.691 80.9108C205.266 80.4761 205.84 80.0664 206.415 79.669C212.88 75.1862 219.945 72.3053 227.706 72.7647C234.11 73.1372 239.965 75.8194 245.232 79.669C245.77 80.0664 246.308 80.4761 246.846 80.9108C250.855 84.1828 254.513 87.8746 257.76 91.9254C258.139 92.3848 258.518 92.8567 258.897 93.3286C259.093 93.5645 259.276 93.8129 259.471 94.0488L259.875 94.5703C263.114 98.6806 266.23 102.952 269.543 106.988L269.689 107.174Z" fill="black"/>
</g>
<g opacity="0.1">
<path d="M269.689 91.4907V145.16C269.691 146.102 269.605 147.042 269.432 147.967C269.371 148.389 269.274 148.799 269.176 149.209C269.066 149.631 268.931 150.053 268.797 150.463C268.711 150.686 268.638 150.91 268.54 151.121C268.504 151.233 268.455 151.332 268.406 151.444C268.296 151.717 268.174 151.978 268.039 152.239C268.039 152.251 268.039 152.263 268.027 152.263C267.954 152.412 267.88 152.561 267.807 152.698C267.66 152.971 267.501 153.244 267.342 153.505C267.147 153.828 266.951 154.126 266.731 154.424C266.608 154.61 266.473 154.788 266.328 154.958C266.206 155.119 266.071 155.281 265.949 155.442C265.816 155.608 265.674 155.766 265.521 155.914C265.43 156.028 265.332 156.136 265.228 156.237C265.033 156.436 264.837 156.634 264.629 156.821C264.558 156.897 264.48 156.968 264.397 157.032C264.262 157.156 264.116 157.28 263.969 157.404C263.896 157.466 263.81 157.541 263.725 157.603C263.664 157.653 263.603 157.702 263.529 157.764H263.517C263.251 157.978 262.973 158.177 262.686 158.36C262.686 158.362 262.686 158.364 262.685 158.365C262.684 158.367 262.683 158.368 262.682 158.369C262.681 158.371 262.68 158.371 262.678 158.372C262.677 158.373 262.675 158.373 262.674 158.373C262.661 158.373 262.661 158.385 262.649 158.398C262.478 158.522 262.295 158.634 262.111 158.745C262.014 158.808 261.916 158.857 261.818 158.907C261.797 158.928 261.772 158.944 261.745 158.957C261.635 159.019 261.537 159.081 261.427 159.13C261.146 159.279 260.865 159.428 260.571 159.565C260.233 159.728 259.886 159.873 259.533 160C259.527 160.007 259.519 160.013 259.511 160.018C259.502 160.022 259.493 160.024 259.484 160.024C259.404 160.059 259.322 160.088 259.239 160.111C259.08 160.173 258.909 160.236 258.75 160.285C258.628 160.322 258.518 160.347 258.396 160.385C258.139 160.471 257.87 160.534 257.601 160.596C257.529 160.618 257.456 160.635 257.381 160.645C257.247 160.683 257.113 160.707 256.978 160.732C256.971 160.731 256.965 160.732 256.958 160.734C256.952 160.736 256.946 160.74 256.941 160.745C256.899 160.742 256.857 160.75 256.819 160.769C256.79 160.767 256.761 160.772 256.734 160.782C256.526 160.819 256.306 160.844 256.086 160.881C255.964 160.894 255.829 160.906 255.695 160.918C255.676 160.929 255.655 160.933 255.634 160.931C255.573 160.931 255.499 160.943 255.438 160.943C255.378 160.954 255.316 160.958 255.255 160.956C255.248 160.962 255.24 160.967 255.23 160.968H255.035C254.729 160.993 254.411 161.005 254.094 161.005H60.3959C56.9549 160.998 53.6125 159.838 50.886 157.705C48.1594 155.573 46.2009 152.586 45.3136 149.208C45.2159 148.799 45.1181 148.389 45.057 147.967C44.8845 147.042 44.7986 146.102 44.8003 145.16V113.098C46.0347 111.471 47.2733 109.848 48.5158 108.23C48.8336 107.808 49.1514 107.398 49.4692 106.988C51.1436 104.803 52.8303 102.642 54.5658 100.531C56.228 98.5068 57.9759 96.5075 59.797 94.5704C60.1881 94.1606 60.5791 93.7383 60.9825 93.3286C65.6192 88.4207 70.9445 84.2362 76.7858 80.9108C77.5803 80.4638 78.387 80.054 79.2059 79.669C83.5423 77.5655 88.234 76.3222 93.0292 76.0058C99.3195 75.6866 105.59 76.9446 111.289 79.669C112.145 80.0415 112.988 80.4638 113.819 80.9108C119.796 84.04 125.406 88.4236 130.661 93.3286C131.114 93.726 131.541 94.1481 131.981 94.5704C136.149 98.5441 140.097 102.803 143.861 106.988C144.143 107.299 144.424 107.621 144.705 107.932C144.79 108.031 144.888 108.131 144.974 108.23C148.64 112.328 152.551 116.475 156.707 120.325C156.817 120.437 156.939 120.536 157.061 120.648C157.514 121.07 157.966 121.48 158.43 121.889C160.068 123.367 161.755 124.783 163.466 126.124C167.521 129.369 171.939 132.116 176.629 134.307C177.619 134.767 178.621 135.177 179.636 135.549C185.224 137.717 191.255 138.443 197.187 137.66C199.912 137.277 202.582 136.568 205.144 135.549C206.121 135.177 207.075 134.754 208.016 134.307C214.212 131.327 219.81 126.819 225.115 121.889C225.555 121.48 225.995 121.07 226.435 120.648C229.454 117.767 232.387 114.774 235.284 111.881C236.506 110.664 237.753 109.434 239.036 108.23C239.476 107.82 239.928 107.41 240.38 106.988C241.92 105.585 243.509 104.207 245.147 102.903C249.15 99.574 253.553 96.7743 258.249 94.5704C258.652 94.3841 259.068 94.2102 259.471 94.0488C260.095 93.788 260.718 93.5521 261.341 93.3286C264.033 92.3486 266.84 91.7307 269.689 91.4907Z" fill="black"/>
</g>
<path d="M93.0781 83.3944C95.1031 83.3944 96.7447 81.7265 96.7447 79.669C96.7447 77.6116 95.1031 75.9437 93.0781 75.9437C91.053 75.9437 89.4114 77.6116 89.4114 79.669C89.4114 81.7265 91.053 83.3944 93.0781 83.3944Z" fill="white"/>
<path d="M149.3 124.373C151.325 124.373 152.967 122.705 152.967 120.648C152.967 118.59 151.325 116.922 149.3 116.922C147.275 116.922 145.634 118.59 145.634 120.648C145.634 122.705 147.275 124.373 149.3 124.373Z" fill="white"/>
<path d="M225.078 97.0539C227.103 97.0539 228.745 95.386 228.745 93.3286C228.745 91.2711 227.103 89.6032 225.078 89.6032C223.053 89.6032 221.411 91.2711 221.411 93.3286C221.411 95.386 223.053 97.0539 225.078 97.0539Z" fill="white"/>
<path d="M391.862 125.114H305.404C304.994 125.113 304.587 125.195 304.208 125.354C303.829 125.513 303.485 125.746 303.195 126.04C302.905 126.335 302.674 126.684 302.517 127.069C302.36 127.454 302.279 127.867 302.279 128.283C302.279 128.7 302.36 129.112 302.517 129.497C302.674 129.882 302.905 130.232 303.195 130.526C303.485 130.82 303.829 131.054 304.208 131.213C304.587 131.372 304.994 131.453 305.404 131.453H391.862C392.69 131.453 393.483 131.119 394.068 130.524C394.653 129.93 394.982 129.124 394.982 128.283C394.982 127.443 394.653 126.636 394.068 126.042C393.483 125.448 392.69 125.114 391.862 125.114Z" fill="#E6E6E6"/>
<path d="M391.862 173.11H305.404C304.576 173.11 303.783 173.444 303.198 174.038C302.613 174.633 302.284 175.439 302.284 176.279C302.284 177.12 302.613 177.926 303.198 178.521C303.783 179.115 304.576 179.449 305.404 179.449H391.862C392.69 179.449 393.483 179.115 394.068 178.521C394.653 177.926 394.982 177.12 394.982 176.279C394.982 175.439 394.653 174.633 394.068 174.038C393.483 173.444 392.69 173.11 391.862 173.11Z" fill="#E6E6E6"/>
<path d="M391.862 221.106H305.404C304.576 221.106 303.783 221.44 303.198 222.034C302.613 222.629 302.284 223.435 302.284 224.276C302.284 225.116 302.613 225.922 303.198 226.517C303.783 227.111 304.576 227.445 305.404 227.445H391.862C392.69 227.445 393.483 227.111 394.068 226.517C394.653 225.922 394.982 225.116 394.982 224.276C394.982 223.435 394.653 222.629 394.068 222.034C393.483 221.44 392.69 221.106 391.862 221.106Z" fill="#E6E6E6"/>
<path d="M444.25 136.436C448.553 136.436 452.041 132.892 452.041 128.52C452.041 124.149 448.553 120.605 444.25 120.605C439.948 120.605 436.46 124.149 436.46 128.52C436.46 132.892 439.948 136.436 444.25 136.436Z" fill="#F2F2F2"/>
<path d="M443.188 132.64C443.053 132.64 442.92 132.608 442.8 132.547C442.68 132.486 442.575 132.397 442.494 132.288L440.369 129.408C440.301 129.316 440.251 129.211 440.222 129.098C440.194 128.986 440.188 128.87 440.204 128.755C440.22 128.641 440.258 128.53 440.316 128.431C440.374 128.331 440.451 128.244 440.542 128.175C440.633 128.105 440.736 128.055 440.847 128.026C440.957 127.998 441.072 127.991 441.185 128.008C441.297 128.024 441.406 128.063 441.504 128.122C441.602 128.181 441.687 128.259 441.756 128.352L443.146 130.235L446.717 124.793C446.845 124.598 447.043 124.463 447.269 124.418C447.494 124.372 447.728 124.419 447.919 124.548C448.111 124.678 448.243 124.879 448.288 125.108C448.333 125.337 448.287 125.575 448.16 125.77L443.909 132.248C443.832 132.365 443.728 132.462 443.607 132.53C443.486 132.598 443.35 132.636 443.212 132.64L443.188 132.64Z" fill="white"/>
<path d="M444.25 184.432C448.553 184.432 452.041 180.888 452.041 176.517C452.041 172.145 448.553 168.601 444.25 168.601C439.948 168.601 436.46 172.145 436.46 176.517C436.46 180.888 439.948 184.432 444.25 184.432Z" fill="#F2F2F2"/>
<path d="M443.188 180.636C443.053 180.636 442.92 180.604 442.8 180.543C442.68 180.482 442.575 180.393 442.494 180.284L440.369 177.405C440.301 177.312 440.251 177.207 440.222 177.095C440.194 176.983 440.188 176.866 440.204 176.751C440.22 176.637 440.258 176.527 440.316 176.427C440.374 176.327 440.451 176.24 440.542 176.171C440.633 176.102 440.736 176.051 440.847 176.022C440.957 175.994 441.072 175.987 441.185 176.004C441.297 176.02 441.406 176.059 441.504 176.118C441.602 176.177 441.687 176.255 441.756 176.348L443.146 178.232L446.717 172.789C446.781 172.693 446.862 172.61 446.956 172.546C447.051 172.481 447.157 172.437 447.269 172.414C447.38 172.391 447.495 172.391 447.607 172.414C447.718 172.436 447.825 172.481 447.919 172.545C448.014 172.609 448.095 172.691 448.159 172.787C448.222 172.883 448.266 172.991 448.288 173.105C448.311 173.218 448.311 173.335 448.289 173.448C448.267 173.562 448.223 173.67 448.16 173.766L443.909 180.244C443.832 180.361 443.728 180.458 443.607 180.526C443.486 180.594 443.35 180.632 443.212 180.636L443.188 180.636Z" fill="white"/>
<path d="M444.25 232.428C448.553 232.428 452.041 228.884 452.041 224.513C452.041 220.141 448.553 216.597 444.25 216.597C439.948 216.597 436.46 220.141 436.46 224.513C436.46 228.884 439.948 232.428 444.25 232.428Z" fill="#F2F2F2"/>
<path d="M391.862 77.1174H305.404C304.576 77.1174 303.783 77.4514 303.198 78.0458C302.613 78.6402 302.284 79.4464 302.284 80.287C302.284 81.1276 302.613 81.9338 303.198 82.5282C303.783 83.1226 304.576 83.4566 305.404 83.4566H391.862C392.69 83.4566 393.483 83.1226 394.068 82.5282C394.653 81.9338 394.982 81.1276 394.982 80.287C394.982 79.4464 394.653 78.6402 394.068 78.0458C393.483 77.4514 392.69 77.1174 391.862 77.1174Z" fill="#E6E6E6"/>
<path d="M444.25 88.4395C448.553 88.4395 452.041 84.8956 452.041 80.5241C452.041 76.1526 448.553 72.6087 444.25 72.6087C439.948 72.6087 436.46 76.1526 436.46 80.5241C436.46 84.8956 439.948 88.4395 444.25 88.4395Z" fill="#FEBA12"/>
<path d="M443.188 84.6437C443.053 84.6437 442.92 84.6119 442.8 84.5507C442.68 84.4896 442.575 84.4008 442.494 84.2914L440.369 81.4121C440.301 81.3196 440.251 81.2143 440.222 81.1023C440.194 80.9902 440.188 80.8735 440.204 80.759C440.22 80.6444 440.258 80.5342 440.316 80.4346C440.374 80.335 440.451 80.248 440.542 80.1786C440.633 80.1092 440.736 80.0587 440.847 80.03C440.957 80.0013 441.072 79.995 441.185 80.0115C441.297 80.0279 441.406 80.0668 441.504 80.1258C441.602 80.1849 441.687 80.263 441.756 80.3556L443.146 82.2392L446.717 76.7964C446.781 76.7002 446.862 76.6176 446.956 76.5533C447.051 76.4889 447.157 76.4441 447.269 76.4215C447.38 76.3988 447.495 76.3987 447.607 76.4211C447.718 76.4436 447.825 76.4881 447.919 76.5522C448.014 76.6164 448.095 76.6988 448.159 76.7949C448.222 76.891 448.266 76.9988 448.288 77.1122C448.311 77.2256 448.311 77.3423 448.289 77.4557C448.267 77.5692 448.223 77.6771 448.16 77.7733L443.909 84.2516C443.832 84.3687 443.728 84.4655 443.607 84.5336C443.486 84.6018 443.35 84.6395 443.212 84.6434L443.188 84.6437Z" fill="white"/>
<path d="M418.402 88.4395C422.705 88.4395 426.193 84.8956 426.193 80.5241C426.193 76.1526 422.705 72.6087 418.402 72.6087C414.099 72.6087 410.611 76.1526 410.611 80.5241C410.611 84.8956 414.099 88.4395 418.402 88.4395Z" fill="#F2F2F2"/>
<path d="M418.402 136.436C422.705 136.436 426.193 132.892 426.193 128.52C426.193 124.149 422.705 120.605 418.402 120.605C414.099 120.605 410.611 124.149 410.611 128.52C410.611 132.892 414.099 136.436 418.402 136.436Z" fill="#F2F2F2"/>
<path d="M418.402 184.432C422.705 184.432 426.193 180.888 426.193 176.517C426.193 172.145 422.705 168.601 418.402 168.601C414.099 168.601 410.611 172.145 410.611 176.517C410.611 180.888 414.099 184.432 418.402 184.432Z" fill="#F2F2F2"/>
<path d="M418.402 232.428C422.705 232.428 426.193 228.884 426.193 224.513C426.193 220.141 422.705 216.597 418.402 216.597C414.099 216.597 410.611 220.141 410.611 224.513C410.611 228.884 414.099 232.428 418.402 232.428Z" fill="#F2F2F2"/>
<path d="M443.188 228.632C443.053 228.632 442.92 228.601 442.8 228.539C442.68 228.478 442.575 228.389 442.494 228.28L440.369 225.401C440.301 225.308 440.251 225.203 440.223 225.091C440.195 224.979 440.188 224.862 440.204 224.748C440.22 224.634 440.259 224.523 440.317 224.424C440.375 224.324 440.451 224.238 440.542 224.168C440.633 224.099 440.737 224.048 440.847 224.02C440.957 223.991 441.072 223.985 441.185 224.001C441.297 224.017 441.406 224.056 441.504 224.115C441.602 224.174 441.687 224.252 441.756 224.344L443.146 226.228L446.717 220.785C446.845 220.591 447.043 220.456 447.269 220.41C447.494 220.364 447.728 220.411 447.919 220.541C448.111 220.67 448.243 220.872 448.288 221.101C448.333 221.33 448.287 221.568 448.16 221.762L443.909 228.24C443.832 228.357 443.728 228.454 443.607 228.522C443.486 228.59 443.35 228.628 443.212 228.632L443.188 228.632Z" fill="white"/>
<path d="M431.955 379.132C431.957 379.178 431.95 379.223 431.932 379.264C431.914 379.306 431.888 379.343 431.854 379.372C431.8 379.413 431.738 379.439 431.672 379.447C431.605 379.462 431.535 379.449 431.477 379.412C431.419 379.375 431.378 379.316 431.362 379.249C430.432 376.073 428.155 373.637 426 371.248C424.06 369.106 422.153 366.847 421.177 364.062C420.753 362.955 420.566 361.77 420.626 360.585C420.687 359.399 420.994 358.24 421.527 357.184C421.862 356.552 422.252 355.952 422.692 355.39C423.656 354.145 424.801 353.036 425.831 351.859C425.939 351.736 426.047 351.606 426.148 351.482C426.289 351.325 426.417 351.161 426.539 350.996C427.823 349.382 428.717 347.483 429.146 345.453C429.606 342.977 429.676 340.443 429.354 337.945C429.22 336.617 429.033 335.298 428.795 333.989C428.782 333.927 428.775 333.873 428.762 333.818C427.722 328.201 425.831 322.783 423.157 317.755C423.056 317.57 422.962 317.385 422.861 317.207C422.43 316.413 421.985 315.633 421.513 314.867C421.675 314.75 421.85 314.641 422.025 314.538C423.57 317.08 424.915 319.741 426.047 322.498C427.51 326.035 428.61 329.716 429.327 333.482C429.375 333.688 429.408 333.9 429.442 334.105C429.725 335.686 429.934 337.288 430.062 338.882C430.315 341.384 430.146 343.912 429.563 346.356C429.035 348.295 428.1 350.096 426.822 351.633C426.593 351.927 426.35 352.215 426.094 352.495C425.07 353.631 423.938 354.733 423.016 355.972C422.544 356.595 422.144 357.27 421.823 357.984C420.739 360.448 421.251 363.145 422.45 365.458C424.619 369.667 428.755 372.535 430.958 376.662C431.365 377.422 431.694 378.222 431.941 379.05C431.949 379.077 431.953 379.105 431.955 379.132Z" fill="white"/>
<path d="M429.163 334.178C431.055 333.695 432.716 332.545 433.85 330.933C434.983 329.321 435.516 327.352 435.353 325.377C435.319 324.978 434.706 325.013 434.741 325.413C434.896 327.251 434.399 329.086 433.341 330.585C432.282 332.084 430.73 333.149 428.966 333.587C428.583 333.683 428.782 334.273 429.163 334.178Z" fill="white"/>
<path d="M426.706 351.098C423.267 349.049 420.715 345.759 419.558 341.883C419.443 341.499 418.863 341.699 418.977 342.083C420.188 346.114 422.851 349.533 426.435 351.657C426.776 351.859 427.046 351.299 426.706 351.098Z" fill="white"/>
<path d="M423.231 317.721C423.204 317.734 423.184 317.741 423.157 317.755C421.944 318.317 420.564 318.383 419.304 317.94C419.359 317.739 419.429 317.542 419.513 317.351C420.607 317.732 421.802 317.681 422.861 317.207C422.921 317.187 422.975 317.159 423.036 317.132C423.113 317.105 423.197 317.11 423.27 317.146C423.343 317.182 423.399 317.246 423.427 317.324C423.449 317.403 423.441 317.487 423.405 317.561C423.368 317.634 423.307 317.691 423.231 317.721Z" fill="white"/>
<path d="M389.653 212.846C390.242 212.126 390.668 211.283 390.902 210.376C391.136 209.47 391.171 208.523 391.005 207.602C390.84 206.68 390.477 205.807 389.943 205.043C389.41 204.279 388.717 203.643 387.916 203.181L391.983 180.789L381.259 185.402L379.04 205.958C378.364 207.378 378.225 209.001 378.648 210.518C379.071 212.036 380.027 213.343 381.335 214.192C382.643 215.041 384.213 215.373 385.746 215.125C387.279 214.877 388.669 214.066 389.653 212.846Z" fill="#FFB6B6"/>
<path d="M396.198 146.571L392.79 134.929L368.755 96.8281C367.418 95.2416 365.82 93.9031 364.033 92.8722C360.48 90.8092 356.339 90.0456 352.3 90.7086C348.26 91.3717 344.566 93.4214 341.834 96.516C339.102 99.6106 337.496 103.563 337.284 107.715C337.073 111.867 338.268 115.967 340.671 119.331C341.166 120.035 341.713 120.698 342.308 121.316L373.436 153.935L375.208 155.797L378.01 162.997L379.115 195.828L380.105 196.067L388.829 198.155L390.048 198.449L392.089 187.724L393.369 182.598C394.458 178.226 395.008 173.734 395.006 169.225C395.006 167.835 394.959 166.439 394.851 165.05L396.198 146.571Z" fill="#3F3D56"/>
<path d="M363.157 372.965H354.811L350.84 340.257L363.158 340.258L363.157 372.965Z" fill="#FFB6B6"/>
<path d="M362.935 370.194L354.029 366.519L353.766 366.409L348.849 370.194C346.15 370.194 343.556 371.252 341.607 373.148C339.658 375.044 338.504 377.632 338.388 380.371C338.374 380.522 338.374 380.679 338.374 380.837V381.186H365.286V370.194H362.935Z" fill="#2F2E41"/>
<path d="M347.263 356.05L340.069 360.35L320.32 334.207L330.937 327.861L347.263 356.05Z" fill="#FFB6B6"/>
<path d="M352.231 360.359L351.254 358.669L347.717 352.564L345.878 353.666L345.69 353.775L336.178 355.199L335.895 355.24L333.551 361.037C332.365 361.745 331.328 362.684 330.499 363.8C329.67 364.916 329.066 366.187 328.721 367.54C328.375 368.893 328.296 370.302 328.487 371.686C328.677 373.07 329.135 374.403 329.832 375.608L330.008 375.902L353.201 362.036L352.231 360.359Z" fill="#2F2E41"/>
<path d="M373.728 173.009C377.641 184.999 377.227 198.015 372.787 211.984L371.628 260.005L367.906 290.296C370.151 296.232 371.302 302.536 371.303 308.894C371.287 325.561 370.184 349.239 364.592 360.362H351.358L348.371 310.829L344.806 285.924L344.366 259.237L343.983 235.962L329.594 257.34L315.611 278.113L329.509 301.931L341.634 340.258L328.835 351.209L314.316 323.241L307.279 314.935L288.07 272.686L289.796 266.804C293.352 254.689 298.515 243.124 305.144 232.426L324.25 187.371L373.728 173.009Z" fill="#2F2E41"/>
<path d="M375.424 169.006L373.241 164.571L373.436 153.935L374.09 117.976C374.169 113.319 373.318 108.693 371.59 104.379C369.861 100.064 367.29 96.1499 364.033 92.8722C362.099 90.9151 359.937 89.2072 357.593 87.787L352.904 84.9399L350.533 78.8213L328.667 79.362L328.62 85.2958L328.6 87.3832L320.765 100.072L320.772 100.127L320.934 123.219L321.257 169.184L323.419 176.308L320.152 184.603L321.89 189.887L323.278 189.661L370.014 182.071C372.139 181.379 373.942 179.924 375.087 177.978C375.317 177.598 375.518 177.2 375.686 176.787C376.196 175.547 376.436 174.21 376.391 172.867C376.346 171.524 376.016 170.207 375.424 169.006Z" fill="#3F3D56"/>
<path d="M338.869 79.3743C349.843 79.3743 358.739 70.3362 358.739 59.1872C358.739 48.0381 349.843 39 338.869 39C327.896 39 319 48.0381 319 59.1872C319 70.3362 327.896 79.3743 338.869 79.3743Z" fill="#FFB6B6"/>
<path d="M351.412 74.0576C353.511 72.5575 355.636 69.7016 357.051 67.5638C358.927 64.7533 360.201 61.5737 360.791 58.231C361.38 54.8883 361.271 51.4572 360.472 48.1599C360.213 46.8407 359.605 45.6182 358.713 44.6241C358.257 44.1389 357.662 43.8127 357.012 43.6921C356.363 43.5716 355.692 43.663 355.097 43.9532C355.397 43.1009 355.522 42.1951 355.464 41.2917C355.406 40.3884 355.167 39.5067 354.761 38.701C353.936 37.0926 352.754 35.7014 351.308 34.638C348.541 32.5349 345.266 31.232 341.83 30.8675C338.393 30.5031 334.924 31.0906 331.789 32.5679C330.556 33.1696 332.533 28.6287 331.24 29.082C329.957 29.6079 328.522 29.6024 327.242 29.0669C326.012 28.4592 322.013 32.2284 322.464 30.9163C321.543 31.357 320.746 32.0274 320.148 32.8651C319.551 33.7028 319.172 34.6805 319.046 35.7073C318.92 36.734 319.053 37.7762 319.43 38.737C319.808 39.6978 320.419 40.5459 321.206 41.2022C322.244 42.0672 323.531 42.5555 324.663 43.2864C326.65 44.6647 328.07 46.7342 328.657 49.1041C329.244 51.4739 328.957 53.9802 327.85 56.1496C329.021 55.3619 330.309 54.7714 331.665 54.4011C332.345 54.2222 333.058 54.211 333.743 54.3683C334.429 54.5257 335.068 54.8471 335.606 55.3058C336.058 55.8166 336.402 56.4159 336.618 57.0669C336.833 57.7178 336.915 58.4067 336.859 59.0911C336.833 60.4615 336.531 61.8155 336.514 63.1861C336.463 67.2077 334.448 74.8805 337.545 76.9741C339.989 78.6264 348.547 76.1059 351.412 74.0576Z" fill="#2F2E41"/>
<path d="M227.214 100.125C227.685 100.931 228.323 101.622 229.084 102.15C229.846 102.678 230.712 103.03 231.622 103.182C232.532 103.333 233.463 103.279 234.351 103.025C235.238 102.771 236.06 102.322 236.758 101.711L256.149 113.128L255.477 101.315L237.166 92.2839C236.077 91.1602 234.62 90.4815 233.071 90.3763C231.522 90.2712 229.989 90.747 228.762 91.7135C227.536 92.6801 226.7 94.0702 226.415 95.6205C226.13 97.1708 226.414 98.7736 227.214 100.125Z" fill="#FFB6B6"/>
<path d="M352.439 96.5885C351.687 94.1996 350.457 91.9947 348.826 90.1122C347.194 88.2298 345.197 86.7105 342.96 85.6499C340.723 84.5893 338.294 84.0104 335.826 83.9494C333.359 83.8885 330.905 84.3469 328.62 85.2958C328.404 85.3848 328.189 85.4806 327.973 85.5764L284.955 105.472L268.209 103.453L246.531 95.7604L245.979 96.6296L241.109 104.274L240.428 105.342L263.682 119.311L266.147 119.831C268.294 120.282 270.333 121.16 272.145 122.413C273.958 123.666 275.509 125.27 276.71 127.134L285.723 130.145L320.934 123.219L340.671 119.331L341.789 119.112C345.172 117.79 348.08 115.458 350.133 112.423C352.185 109.389 353.285 105.794 353.288 102.112C353.289 100.237 353.003 98.3736 352.439 96.5885Z" fill="#3F3D56"/>
<path d="M452.539 382H218.124C217.911 382 217.707 381.914 217.557 381.761C217.406 381.608 217.322 381.401 217.322 381.185C217.322 380.969 217.406 380.762 217.557 380.609C217.707 380.456 217.911 380.37 218.124 380.37H452.539C452.752 380.37 452.956 380.456 453.106 380.609C453.257 380.762 453.341 380.969 453.341 381.185C453.341 381.401 453.257 381.608 453.106 381.761C452.956 381.914 452.752 382 452.539 382Z" fill="#CCCCCC"/>
<path d="M200.237 191.59H57.867C57.0405 191.591 56.2482 191.926 55.6641 192.52C55.08 193.114 54.752 193.92 54.752 194.76C54.752 195.599 55.08 196.405 55.6641 196.999C56.2482 197.593 57.0405 197.928 57.867 197.929H200.237C200.647 197.93 201.053 197.848 201.432 197.689C201.811 197.53 202.156 197.297 202.446 197.002C202.736 196.708 202.966 196.358 203.123 195.974C203.28 195.589 203.361 195.176 203.361 194.76C203.361 194.343 203.28 193.93 203.123 193.546C202.966 193.161 202.736 192.811 202.446 192.517C202.156 192.222 201.811 191.989 201.432 191.83C201.053 191.671 200.647 191.589 200.237 191.59H200.237Z" fill="#E6E6E6"/>
<path d="M252.625 202.912C256.928 202.912 260.416 199.368 260.416 194.997C260.416 190.625 256.928 187.081 252.625 187.081C248.322 187.081 244.834 190.625 244.834 194.997C244.834 199.368 248.322 202.912 252.625 202.912Z" fill="#FEBA12"/>
<path d="M251.562 199.116C251.428 199.116 251.295 199.084 251.175 199.023C251.054 198.962 250.95 198.873 250.869 198.764L248.744 195.885C248.675 195.792 248.626 195.687 248.597 195.575C248.569 195.463 248.563 195.346 248.579 195.232C248.595 195.117 248.633 195.007 248.691 194.908C248.749 194.808 248.826 194.721 248.917 194.652C249.008 194.583 249.112 194.532 249.222 194.504C249.332 194.475 249.447 194.468 249.559 194.485C249.672 194.501 249.78 194.54 249.878 194.599C249.976 194.658 250.062 194.736 250.13 194.828L251.521 196.712L255.092 191.269C255.155 191.173 255.236 191.09 255.331 191.026C255.425 190.962 255.532 190.917 255.643 190.894C255.755 190.871 255.87 190.871 255.981 190.894C256.093 190.916 256.199 190.961 256.294 191.025C256.389 191.089 256.47 191.171 256.533 191.267C256.597 191.364 256.641 191.471 256.663 191.585C256.685 191.698 256.685 191.815 256.663 191.928C256.641 192.042 256.597 192.15 256.534 192.246L252.283 198.724C252.206 198.841 252.103 198.938 251.982 199.006C251.86 199.074 251.725 199.112 251.586 199.116L251.562 199.116Z" fill="white"/>
<path d="M226.777 202.912C231.079 202.912 234.567 199.368 234.567 194.997C234.567 190.625 231.079 187.081 226.777 187.081C222.474 187.081 218.986 190.625 218.986 194.997C218.986 199.368 222.474 202.912 226.777 202.912Z" fill="#F2F2F2"/>
<path d="M199.563 229.917H57.1934C56.3668 229.918 55.5745 230.253 54.9905 230.847C54.4064 231.441 54.0784 232.247 54.0784 233.086C54.0784 233.926 54.4064 234.732 54.9905 235.326C55.5745 235.92 56.3668 236.255 57.1934 236.256H199.563C200.391 236.256 201.184 235.922 201.769 235.328C202.354 234.733 202.683 233.927 202.683 233.086C202.683 232.246 202.354 231.44 201.769 230.845C201.184 230.251 200.391 229.917 199.563 229.917H199.563Z" fill="#E6E6E6"/>
<path d="M251.951 241.239C256.254 241.239 259.742 237.695 259.742 233.324C259.742 228.952 256.254 225.408 251.951 225.408C247.649 225.408 244.161 228.952 244.161 233.324C244.161 237.695 247.649 241.239 251.951 241.239Z" fill="#F2F2F2"/>
<path d="M250.889 237.443C250.754 237.443 250.621 237.411 250.501 237.35C250.381 237.289 250.276 237.2 250.195 237.091L248.07 234.212C247.932 234.025 247.873 233.79 247.905 233.559C247.938 233.328 248.059 233.119 248.243 232.979C248.427 232.839 248.658 232.779 248.886 232.812C249.113 232.845 249.319 232.968 249.457 233.155L250.847 235.039L254.418 229.596C254.482 229.5 254.563 229.417 254.657 229.353C254.752 229.288 254.858 229.244 254.97 229.221C255.081 229.198 255.196 229.198 255.308 229.221C255.419 229.243 255.526 229.288 255.62 229.352C255.715 229.416 255.796 229.498 255.86 229.594C255.923 229.69 255.967 229.798 255.989 229.912C256.012 230.025 256.012 230.142 255.99 230.255C255.968 230.369 255.924 230.476 255.861 230.573L251.61 237.051C251.533 237.168 251.429 237.265 251.308 237.333C251.187 237.401 251.051 237.439 250.913 237.443L250.889 237.443Z" fill="white"/>
<path d="M226.103 241.239C230.406 241.239 233.894 237.695 233.894 233.324C233.894 228.952 230.406 225.408 226.103 225.408C221.8 225.408 218.312 228.952 218.312 233.324C218.312 237.695 221.8 241.239 226.103 241.239Z" fill="#F2F2F2"/>
</g>
<defs>
<clipPath id="clip0_3_164">
<rect width="506" height="382" fill="white"/>
</clipPath>
</defs>
</svg>
